<?xml version="1.0"?>
<svg id="Layer_1" data-name="Layer 1" xmlns="http://www.w3.org/2000/svg" viewBox="0 0 1943.29 349.84">
  <defs>
    
  </defs>
  <g>
    <path class="cls-1" d="M0,349.84v-18.41h20.95v-36.83h10.47v-55.24h10.47v-55.24h10.47v-55.24h10.47v-55.24h10.47V18.41h10.47v36.83h10.47v36.83h10.47v55.24h10.47v36.83h10.47v55.24h10.47v55.24h10.47v36.83h20.95v18.41h-62.84v-18.41h20.95v-36.83h-10.47v-55.24H41.9v55.24h-10.47v36.83h20.95v18.41H0ZM52.37,184.13v36.83h52.37v-36.83h-10.47v-55.24h-10.47v-36.83h-10.47v36.83h-10.47v55.24h-10.47Z"></path>
    <path class="cls-1" d="M178.05,349.84v-18.41h20.95V36.83h-20.95v-18.41h94.26v18.41h20.95v18.41h10.47v92.06h-10.47v18.41h-10.47v18.41h-20.95v18.41h10.47v36.83h10.47v18.41h10.47v36.83h10.47v18.41h10.47v18.41h10.47v18.41h-31.42v-18.41h-10.47v-36.83h-10.47v-36.83h-10.47v-18.41h-10.47v-36.83h-10.47v-18.41h-20.95v147.3h20.95v18.41h-62.84ZM272.32,36.83h-52.37v128.89h52.37v-18.41h10.47V55.24h-10.47v-18.41Z"></path>
    <path class="cls-1" d="M358.71,331.43h20.95V36.83h-41.9v18.41h-10.47v18.41h-10.47V0h10.47v18.41h125.69V0h10.47v73.65h-10.47v-18.41h-10.47v-18.41h-41.9v294.6h20.95v18.41h-62.84v-18.41Z"></path>
    <path class="cls-1" d="M641.5,331.43v18.41h-94.26v-18.41h20.95V36.83h-20.95v-18.41h94.26v18.41h20.95v18.41h10.47v18.41h10.47v36.83h10.47v147.3h-10.47v18.41h-10.47v36.83h-10.47v18.41h-20.95ZM641.5,36.83h-52.37v276.19h10.47v18.41h41.9v-18.41h10.47v-36.83h10.47v-18.41h10.47V110.48h-10.47v-36.83h-10.47v-18.41h-10.47v-18.41Z"></path>
    <path class="cls-1" d="M693.87,331.43h20.95V36.83h-20.95v-18.41h62.84v18.41h-20.95v294.6h20.95v18.41h-62.84v-18.41Z"></path>
    <path class="cls-1" d="M767.18,349.84v-18.41h20.95V36.83h-20.95v-18.41h94.26v18.41h20.95v18.41h10.47v92.06h-10.47v18.41h-10.47v18.41h-20.95v18.41h10.47v36.83h10.47v18.41h10.47v36.83h10.47v18.41h10.47v18.41h10.47v18.41h-31.42v-18.41h-10.47v-36.83h-10.47v-36.83h-10.47v-18.41h-10.47v-36.83h-10.47v-18.41h-20.95v147.3h20.95v18.41h-62.84ZM861.45,36.83h-52.37v128.89h52.37v-18.41h10.47V55.24h-10.47v-18.41Z"></path>
    <path class="cls-1" d="M924.29,331.43h20.95V36.83h-20.95v-18.41h115.21v18.41h10.47v55.24h-10.47v-18.41h-10.47v-18.41h-10.47v-18.41h-52.37v128.89h41.89v-18.41h10.47v-18.41h10.47v92.06h-10.47v-18.41h-10.47v-18.41h-41.89v147.3h52.37v-18.41h10.47v-18.41h10.47v-18.41h10.47v55.24h-10.47v18.41h-115.21v-18.41Z"></path>
    <path class="cls-1" d="M1078.38,313.01v-36.83h-10.47v-18.41h-10.47V110.48h10.47v-36.83h10.47v-18.41h10.47v-18.41h20.95v-18.41h62.84v18.41h10.47v55.24h-10.47v-18.41h-10.47v-18.41h-10.47v-18.41h-41.89v18.41h-10.47v18.41h-10.47v36.83h-10.47v147.3h10.47v18.41h10.47v36.83h10.47v18.41h41.89v-18.41h10.47v-18.41h10.47v-18.41h10.47v55.24h-10.47v18.41h-62.84v-18.41h-20.95v-18.41h-10.47Z"></path>
    <path class="cls-1" d="M1235.48,331.43h20.95V36.83h-41.9v18.41h-10.47v18.41h-10.47V0h10.47v18.41h125.69V0h10.47v73.65h-10.47v-18.41h-10.47v-18.41h-41.9v294.6h20.95v18.41h-62.84v-18.41Z"></path>
    <path class="cls-1" d="M1395.52,349.84v-18.41h-20.95v-18.41h-10.47v-18.41h-10.47v-36.83h-10.47V110.48h10.47v-36.83h10.47v-18.41h10.47v-18.41h20.95v-18.41h41.89v18.41h20.95v18.41h10.47v18.41h10.47v36.83h10.47v147.3h-10.47v36.83h-10.47v18.41h-10.47v18.41h-20.95v18.41h-41.89ZM1437.42,331.43v-18.41h10.47v-18.41h10.47v-36.83h10.47V110.48h-10.47v-36.83h-10.47v-18.41h-10.47v-18.41h-41.89v18.41h-10.47v18.41h-10.47v36.83h-10.47v147.3h10.47v36.83h10.47v18.41h10.47v18.41h41.89Z"></path>
    <path class="cls-1" d="M1489.79,349.84v-18.41h20.95V36.83h-20.95v-18.41h94.26v18.41h20.95v18.41h10.47v92.06h-10.47v18.41h-10.47v18.41h-20.95v18.41h10.47v36.83h10.47v18.41h10.47v36.83h10.47v18.41h10.47v18.41h10.47v18.41h-31.42v-18.41h-10.47v-36.83h-10.47v-36.83h-10.47v-18.41h-10.47v-36.83h-10.47v-18.41h-20.95v147.3h20.95v18.41h-62.84ZM1584.05,36.83h-52.37v128.89h52.37v-18.41h10.47V55.24h-10.47v-18.41Z"></path>
  </g>
  <text></text>
</svg>