<?xml version="1.0"?>  <svg version="1.0" xmlns="http://www.w3.org/2000/svg" width="600.000000pt" height="343.000000pt" viewBox="0 0 600.000000 343.000000" preserveAspectRatio="xMidYMid meet"> <g transform="translate(0.000000,343.000000) scale(0.100000,-0.100000)" fill="#ffea00" stroke="none"> <path d="M353 2300 l-132 -135 -3 -617 -3 -618 67 67 68 67 0 196 0 196 61 59 61 60 -4 -318 c-2 -174 -1 -317 2 -317 3 0 34 28 68 63 l62 63 0 684 0 684 -56 -54 -56 -55 5 52 c3 29 3 54 -1 56 -4 1 -66 -58 -139 -133z m57 -605 l-60 -60 0 240 0 239 58 59 57 58 3 -238 2 -237 -60 -61z"></path> <path d="M2412 2381 l-54 -56 6 53 c3 28 2 52 -2 52 -4 0 -67 -60 -139 -132 l-133 -133 -2 -613 c-2 -336 0 -612 3 -612 4 0 27 22 53 50 58 62 60 62 53 -5 -3 -30 -2 -55 1 -55 4 0 66 62 139 137 l132 138 1 614 c1 337 0 614 -2 616 -2 1 -27 -24 -56 -54z m-72 -644 l0 -483 -60 -59 -60 -59 0 483 0 483 53 59 c28 32 55 59 60 59 4 0 7 -217 7 -483z"></path> <path d="M3548 2303 l-138 -138 0 -615 0 -614 56 54 55 55 -4 -47 c-2 -27 -1 -50 2 -53 2 -3 65 57 138 132 l133 138 0 90 0 90 -125 -125 -125 -125 0 179 0 179 75 70 75 69 0 96 0 96 -75 -74 -75 -74 0 210 0 210 60 59 60 59 0 -69 0 -70 80 80 80 80 0 94 0 95 -65 -64 -64 -63 -3 66 -3 67 -137 -137z"></path> <path d="M4468 2294 l-138 -141 0 -87 c0 -47 2 -86 5 -86 3 0 36 33 75 73 l70 72 -1 -588 c0 -324 1 -590 3 -593 2 -2 32 25 66 61 l62 64 0 528 0 529 60 59 60 59 0 95 0 95 -59 -58 -60 -59 -3 59 -3 59 -137 -141z"></path> <path d="M4968 2303 l-138 -138 0 -615 0 -614 65 64 65 64 0 -69 0 -70 140 140 140 140 0 620 0 619 -64 -63 -65 -64 -3 62 -3 61 -137 -137z m132 -554 l0 -494 -68 -68 -67 -67 2 496 3 497 62 67 c35 36 64 66 66 65 1 -1 3 -225 2 -496z"></path> <path d="M863 2296 l-133 -133 0 -616 0 -615 65 67 65 68 0 238 0 238 55 58 c30 32 56 54 56 51 1 -4 1 -169 -1 -367 l-2 -360 71 70 71 69 0 370 0 370 -35 -34 -35 -34 0 40 c0 33 6 46 35 74 l35 34 0 275 0 276 -51 -52 c-62 -65 -61 -65 -53 -3 4 28 3 50 -2 50 -5 0 -69 -60 -141 -134z m111 -274 l-5 -187 -54 -55 -55 -55 0 189 0 189 53 57 c28 31 55 55 59 53 3 -2 4 -87 2 -191z"></path> <path d="M1348 2293 l-138 -138 0 -95 1 -95 72 78 c40 42 75 77 78 77 2 0 3 -269 1 -597 l-4 -598 71 70 71 69 0 521 0 521 70 69 70 69 0 96 -1 95 -74 -79 -74 -78 -3 76 -3 76 -137 -137z"></path> <path d="M2682 2365 l-62 -65 0 -684 0 -684 64 67 65 66 3 683 c2 375 1 682 -2 682 -3 0 -33 -29 -68 -65z"></path> <path d="M3028 2285 l-138 -141 0 -608 c0 -334 4 -606 8 -604 5 2 36 33 70 69 l62 67 0 239 0 239 55 54 55 54 0 -366 0 -366 65 67 65 68 0 368 0 369 -30 -29 -30 -29 0 39 c0 30 7 46 30 70 l29 30 3 273 c2 149 1 272 0 272 -2 0 -25 -23 -50 -52 l-47 -52 -5 55 -5 54 -137 -140z m57 -506 c-30 -31 -55 -54 -56 -51 -1 4 0 90 1 192 l1 185 52 53 52 53 3 -187 2 -187 -55 -58z"></path> <path d="M4013 2298 l-133 -133 -2 -613 c-2 -336 -1 -612 2 -612 3 0 26 23 52 52 l47 53 1 -55 0 -55 140 140 140 140 0 163 0 164 -65 -69 -64 -68 -1 -70 0 -71 -60 -59 -60 -59 0 480 0 480 45 44 45 44 0 -54 0 -55 80 80 80 80 0 95 -1 95 -47 -53 c-58 -65 -66 -65 -59 -2 3 28 3 50 -1 50 -4 0 -67 -60 -139 -132z"></path> <path d="M5503 2288 l-133 -133 0 -605 c0 -333 0 -609 0 -615 0 -5 29 20 65 55 l65 64 0 241 0 241 53 52 c29 29 55 52 57 52 3 0 4 -163 2 -362 l-3 -363 70 70 71 70 0 369 0 370 -35 -34 -35 -34 0 40 c0 33 6 46 35 74 l35 34 0 275 0 275 -48 -47 c-58 -57 -58 -57 -54 -2 2 25 0 45 -5 45 -4 0 -68 -60 -140 -132z m109 -275 l-4 -188 -54 -55 -54 -55 0 190 0 189 52 53 c29 29 55 53 58 53 4 0 5 -84 2 -187z"></path> </g> </svg>