<?xml version="1.0"?>  <svg version="1.0" xmlns="http://www.w3.org/2000/svg" width="600.000000pt" height="343.000000pt" viewBox="0 0 600.000000 343.000000" preserveAspectRatio="xMidYMid meet"> <g transform="translate(0.000000,343.000000) scale(0.100000,-0.100000)" fill="#ffea00" stroke="none"> <path d="M215 3288 c-3 -7 -4 -706 -3 -1553 l3 -1540 68 -3 67 -3 -2 1553 -3 1553 -63 3 c-44 2 -64 -1 -67 -10z"></path> <path d="M535 3288 c-3 -7 -4 -706 -3 -1553 l3 -1540 68 -3 67 -3 -2 1553 -3 1553 -63 3 c-44 2 -64 -1 -67 -10z"></path> <path d="M850 1745 l0 -1556 65 3 65 3 0 1550 0 1550 -65 3 -65 3 0 -1556z"></path> <path d="M1170 3293 c0 -5 0 -703 0 -1553 l0 -1545 65 -3 65 -3 0 1556 0 1555 -65 0 c-36 0 -65 -3 -65 -7z"></path> <path d="M1490 3293 c0 -4 0 -703 0 -1553 l0 -1545 65 -3 65 -3 -2 1553 -3 1553 -62 3 c-35 2 -63 -1 -63 -5z"></path> <path d="M1800 1745 l0 -1556 65 3 66 3 0 1550 0 1550 -66 3 -65 3 0 -1556z"></path> <path d="M2120 1745 l0 -1556 65 3 65 3 0 1550 0 1550 -65 3 -65 3 0 -1556z"></path> <path d="M2440 1745 l0 -1555 65 0 65 0 0 1555 0 1555 -65 0 -65 0 0 -1555z"></path> <path d="M2760 3295 c0 -3 0 -701 0 -1552 l0 -1548 65 -3 65 -3 0 1556 0 1555 -65 0 c-36 0 -65 -2 -65 -5z"></path> <path d="M3077 3294 c-4 -4 -7 -704 -7 -1556 l0 -1549 65 3 66 3 0 1550 1 1550 -59 3 c-32 2 -62 0 -66 -4z"></path> <path d="M3390 1745 l0 -1555 65 0 65 0 0 1555 0 1555 -65 0 -65 0 0 -1555z"></path> <path d="M3710 1745 l0 -1555 65 0 65 0 0 1555 0 1555 -65 0 -65 0 0 -1555z"></path> <path d="M4030 3295 c0 -3 0 -701 0 -1552 l0 -1548 65 -3 65 -3 0 1556 0 1555 -65 0 c-36 0 -65 -2 -65 -5z"></path> <path d="M4347 3294 c-4 -4 -7 -704 -7 -1556 l0 -1549 68 3 67 3 0 1550 0 1550 -60 3 c-34 2 -64 0 -68 -4z"></path> <path d="M4660 1745 l0 -1556 65 3 66 3 0 1550 0 1550 -66 3 -65 3 0 -1556z"></path> <path d="M4980 1745 l0 -1555 65 0 65 0 0 1555 0 1555 -65 0 -65 0 0 -1555z"></path> <path d="M5300 3295 c0 -3 0 -701 0 -1552 l0 -1548 65 -3 65 -3 0 1556 0 1555 -65 0 c-36 0 -65 -2 -65 -5z"></path> <path d="M5617 3294 c-4 -4 -7 -704 -7 -1556 l0 -1548 70 0 70 0 -2 1553 -3 1552 -60 3 c-34 2 -64 0 -68 -4z"></path> </g> </svg>