<?xml version="1.0"?>  <svg version="1.0" xmlns="http://www.w3.org/2000/svg" width="600.000000pt" height="343.000000pt" viewBox="0 0 600.000000 343.000000" preserveAspectRatio="xMidYMid meet"> <g transform="translate(0.000000,343.000000) scale(0.100000,-0.100000)" fill="#ffea00" stroke="none"> <path d="M2402 2372 l-61 -67 -1 -610 0 -610 65 65 65 65 0 609 c1 335 -1 610 -3 612 -1 2 -31 -27 -65 -64z"></path> <path d="M5168 2374 l-68 -69 0 -607 c0 -335 3 -607 8 -607 4 1 35 32 70 69 l62 67 -2 607 -3 608 -67 -68z"></path> <path d="M533 2368 l-62 -63 -3 -683 c-2 -375 -1 -682 2 -682 3 0 34 28 68 63 l62 63 -2 682 -3 683 -62 -63z"></path> <path d="M1038 2363 l-68 -69 0 -684 0 -685 70 70 70 70 -2 683 -3 683 -67 -68z"></path> <path d="M2683 2366 l-63 -64 0 -685 0 -685 64 67 65 66 3 683 c2 375 1 682 -2 682 -3 0 -33 -29 -67 -64z"></path> <path d="M3203 2351 l-63 -70 0 -679 0 -680 64 67 65 66 3 683 c2 375 1 682 -2 682 -3 0 -33 -31 -67 -69z"></path> <path d="M5678 2353 l-68 -69 0 -684 0 -685 70 71 70 71 -2 682 -3 682 -67 -68z"></path> <path d="M3943 2230 l-62 -66 -3 -612 c-2 -337 -1 -612 2 -612 3 0 33 28 68 63 l62 62 0 614 c1 337 0 614 -2 615 -2 1 -31 -28 -65 -64z"></path> <path d="M4898 2233 l-68 -69 0 -616 0 -616 70 72 70 73 -2 612 -3 612 -67 -68z"></path> <path d="M792 2227 l-62 -63 0 -616 0 -616 65 67 65 67 0 609 c0 334 -1 609 -3 611 -2 2 -31 -25 -65 -59z"></path> <path d="M1428 2222 l-68 -69 0 -614 0 -614 70 70 70 70 -2 613 -3 613 -67 -69z"></path> <path d="M2153 2228 l-62 -63 -3 -613 c-2 -336 -1 -612 2 -612 3 0 34 28 68 63 l62 63 -2 612 -3 613 -62 -63z"></path> <path d="M3472 2227 l-62 -63 0 -614 0 -615 65 65 65 65 2 613 c2 336 1 612 -2 612 -3 0 -34 -28 -68 -63z"></path> <path d="M4543 2228 l-62 -63 -2 -608 c0 -335 1 -610 3 -612 2 -3 32 24 66 59 l62 63 -2 612 -3 612 -62 -63z"></path> <path d="M2953 2211 l-63 -67 0 -608 c0 -334 4 -606 8 -604 5 2 36 33 70 69 l62 67 0 606 c0 333 -3 605 -7 605 -5 -1 -36 -32 -70 -68z"></path> <path d="M5432 2217 l-62 -62 0 -609 c0 -335 1 -610 3 -612 2 -2 31 25 65 59 l62 62 0 609 c0 335 -1 610 -3 612 -2 2 -31 -25 -65 -59z"></path> <path d="M282 2179 l-62 -66 -3 -591 -2 -592 68 68 67 67 -2 590 -3 590 -63 -66z"></path> <path d="M4195 1472 l-60 -65 -5 -155 c-3 -85 -2 -156 1 -157 3 -2 33 24 68 59 l62 62 -3 161 -3 161 -60 -66z"></path> </g> </svg>