<?xml version="1.0"?>
<svg id="Layer_1" xmlns="http://www.w3.org/2000/svg" version="1.1" viewBox="0 0 4130.76 2301.46">
  
  <defs>
    
  </defs>
  <g class="st0">
    <text class="st5" transform="translate(312.7192 1218.3233) scale(.5688 1)"><tspan x="0" y="0">A</tspan></text>
    <text class="st4" transform="translate(637.8774 1218.3233) scale(.5688 1)"><tspan x="0" y="0">R</tspan></text>
    <text class="st5" transform="translate(891.272 1218.3233) scale(.5688 1)"><tspan x="0" y="0">T </tspan></text>
    <text class="st2" transform="translate(1312.0728 1218.3233) scale(.5688 1)"><tspan x="0" y="0">D</tspan></text>
    <text class="st5" transform="translate(1579.856 1218.3233) scale(.5688 1)"><tspan x="0" y="0">IR</tspan></text>
    <text class="st1" transform="translate(2000.645 1218.3233) scale(.5688 1)"><tspan x="0" y="0">E</tspan></text>
    <text class="st5" transform="translate(2243.7876 1218.3233) scale(.5688 1)"><tspan x="0" y="0">C</tspan></text>
    <text class="st3" transform="translate(2492.438 1218.3233) scale(.5688 1)"><tspan x="0" y="0">T</tspan></text>
    <text class="st2" transform="translate(2765.5708 1218.3233) scale(.5688 1)"><tspan x="0" y="0">O</tspan></text>
    <text class="st5" transform="translate(3033.354 1218.3233) scale(.5688 1)"><tspan x="0" y="0">R</tspan></text>
  </g>
</svg>