<?xml version="1.0"?>
<svg xmlns="http://www.w3.org/2000/svg" viewBox="0 0 1853 663" width="1853" height="663" shape-rendering="crispEdges">
  <title>Art Director pixel wordmark</title>
  <g id="art-director-wordmark" fill="#003698">
    <rect id="pixel-001" x="119" y="0" width="17" height="17"></rect>
    <rect id="pixel-002" x="119" y="17" width="17" height="17"></rect>
    <rect id="pixel-003" x="119" y="34" width="17" height="17"></rect>
    <rect id="pixel-004" x="136" y="34" width="17" height="17"></rect>
    <rect id="pixel-005" x="493" y="34" width="17" height="17"></rect>
    <rect id="pixel-006" x="510" y="34" width="17" height="17"></rect>
    <rect id="pixel-007" x="102" y="51" width="17" height="17"></rect>
    <rect id="pixel-008" x="119" y="51" width="17" height="17"></rect>
    <rect id="pixel-009" x="136" y="51" width="17" height="17"></rect>
    <rect id="pixel-010" x="493" y="51" width="17" height="17"></rect>
    <rect id="pixel-011" x="510" y="51" width="17" height="17"></rect>
    <rect id="pixel-012" x="102" y="68" width="17" height="17"></rect>
    <rect id="pixel-013" x="136" y="68" width="17" height="17"></rect>
    <rect id="pixel-014" x="153" y="68" width="17" height="17"></rect>
    <rect id="pixel-015" x="476" y="68" width="17" height="17"></rect>
    <rect id="pixel-016" x="493" y="68" width="17" height="17"></rect>
    <rect id="pixel-017" x="510" y="68" width="17" height="17"></rect>
    <rect id="pixel-018" x="102" y="85" width="17" height="17"></rect>
    <rect id="pixel-019" x="136" y="85" width="17" height="17"></rect>
    <rect id="pixel-020" x="153" y="85" width="17" height="17"></rect>
    <rect id="pixel-021" x="323" y="85" width="17" height="17"></rect>
    <rect id="pixel-022" x="374" y="85" width="17" height="17"></rect>
    <rect id="pixel-023" x="391" y="85" width="17" height="17"></rect>
    <rect id="pixel-024" x="408" y="85" width="17" height="17"></rect>
    <rect id="pixel-025" x="459" y="85" width="17" height="17"></rect>
    <rect id="pixel-026" x="476" y="85" width="17" height="17"></rect>
    <rect id="pixel-027" x="493" y="85" width="17" height="17"></rect>
    <rect id="pixel-028" x="510" y="85" width="17" height="17"></rect>
    <rect id="pixel-029" x="527" y="85" width="17" height="17"></rect>
    <rect id="pixel-030" x="544" y="85" width="17" height="17"></rect>
    <rect id="pixel-031" x="85" y="102" width="17" height="17"></rect>
    <rect id="pixel-032" x="153" y="102" width="17" height="17"></rect>
    <rect id="pixel-033" x="306" y="102" width="17" height="17"></rect>
    <rect id="pixel-034" x="323" y="102" width="17" height="17"></rect>
    <rect id="pixel-035" x="357" y="102" width="17" height="17"></rect>
    <rect id="pixel-036" x="374" y="102" width="17" height="17"></rect>
    <rect id="pixel-037" x="391" y="102" width="17" height="17"></rect>
    <rect id="pixel-038" x="408" y="102" width="17" height="17"></rect>
    <rect id="pixel-039" x="425" y="102" width="17" height="17"></rect>
    <rect id="pixel-040" x="476" y="102" width="17" height="17"></rect>
    <rect id="pixel-041" x="493" y="102" width="17" height="17"></rect>
    <rect id="pixel-042" x="510" y="102" width="17" height="17"></rect>
    <rect id="pixel-043" x="85" y="119" width="17" height="17"></rect>
    <rect id="pixel-044" x="153" y="119" width="17" height="17"></rect>
    <rect id="pixel-045" x="170" y="119" width="17" height="17"></rect>
    <rect id="pixel-046" x="289" y="119" width="17" height="17"></rect>
    <rect id="pixel-047" x="306" y="119" width="17" height="17"></rect>
    <rect id="pixel-048" x="323" y="119" width="17" height="17"></rect>
    <rect id="pixel-049" x="340" y="119" width="17" height="17"></rect>
    <rect id="pixel-050" x="408" y="119" width="17" height="17"></rect>
    <rect id="pixel-051" x="425" y="119" width="17" height="17"></rect>
    <rect id="pixel-052" x="476" y="119" width="17" height="17"></rect>
    <rect id="pixel-053" x="493" y="119" width="17" height="17"></rect>
    <rect id="pixel-054" x="510" y="119" width="17" height="17"></rect>
    <rect id="pixel-055" x="85" y="136" width="17" height="17"></rect>
    <rect id="pixel-056" x="153" y="136" width="17" height="17"></rect>
    <rect id="pixel-057" x="170" y="136" width="17" height="17"></rect>
    <rect id="pixel-058" x="306" y="136" width="17" height="17"></rect>
    <rect id="pixel-059" x="323" y="136" width="17" height="17"></rect>
    <rect id="pixel-060" x="476" y="136" width="17" height="17"></rect>
    <rect id="pixel-061" x="493" y="136" width="17" height="17"></rect>
    <rect id="pixel-062" x="510" y="136" width="17" height="17"></rect>
    <rect id="pixel-063" x="68" y="153" width="17" height="17"></rect>
    <rect id="pixel-064" x="170" y="153" width="17" height="17"></rect>
    <rect id="pixel-065" x="187" y="153" width="17" height="17"></rect>
    <rect id="pixel-066" x="306" y="153" width="17" height="17"></rect>
    <rect id="pixel-067" x="323" y="153" width="17" height="17"></rect>
    <rect id="pixel-068" x="476" y="153" width="17" height="17"></rect>
    <rect id="pixel-069" x="493" y="153" width="17" height="17"></rect>
    <rect id="pixel-070" x="510" y="153" width="17" height="17"></rect>
    <rect id="pixel-071" x="68" y="170" width="17" height="17"></rect>
    <rect id="pixel-072" x="170" y="170" width="17" height="17"></rect>
    <rect id="pixel-073" x="187" y="170" width="17" height="17"></rect>
    <rect id="pixel-074" x="306" y="170" width="17" height="17"></rect>
    <rect id="pixel-075" x="323" y="170" width="17" height="17"></rect>
    <rect id="pixel-076" x="476" y="170" width="17" height="17"></rect>
    <rect id="pixel-077" x="493" y="170" width="17" height="17"></rect>
    <rect id="pixel-078" x="510" y="170" width="17" height="17"></rect>
    <rect id="pixel-079" x="68" y="187" width="17" height="17"></rect>
    <rect id="pixel-080" x="85" y="187" width="17" height="17"></rect>
    <rect id="pixel-081" x="102" y="187" width="17" height="17"></rect>
    <rect id="pixel-082" x="119" y="187" width="17" height="17"></rect>
    <rect id="pixel-083" x="136" y="187" width="17" height="17"></rect>
    <rect id="pixel-084" x="153" y="187" width="17" height="17"></rect>
    <rect id="pixel-085" x="170" y="187" width="17" height="17"></rect>
    <rect id="pixel-086" x="187" y="187" width="17" height="17"></rect>
    <rect id="pixel-087" x="306" y="187" width="17" height="17"></rect>
    <rect id="pixel-088" x="323" y="187" width="17" height="17"></rect>
    <rect id="pixel-089" x="476" y="187" width="17" height="17"></rect>
    <rect id="pixel-090" x="493" y="187" width="17" height="17"></rect>
    <rect id="pixel-091" x="510" y="187" width="17" height="17"></rect>
    <rect id="pixel-092" x="51" y="204" width="17" height="17"></rect>
    <rect id="pixel-093" x="187" y="204" width="17" height="17"></rect>
    <rect id="pixel-094" x="204" y="204" width="17" height="17"></rect>
    <rect id="pixel-095" x="306" y="204" width="17" height="17"></rect>
    <rect id="pixel-096" x="323" y="204" width="17" height="17"></rect>
    <rect id="pixel-097" x="476" y="204" width="17" height="17"></rect>
    <rect id="pixel-098" x="493" y="204" width="17" height="17"></rect>
    <rect id="pixel-099" x="510" y="204" width="17" height="17"></rect>
    <rect id="pixel-100" x="51" y="221" width="17" height="17"></rect>
    <rect id="pixel-101" x="187" y="221" width="17" height="17"></rect>
    <rect id="pixel-102" x="204" y="221" width="17" height="17"></rect>
    <rect id="pixel-103" x="306" y="221" width="17" height="17"></rect>
    <rect id="pixel-104" x="323" y="221" width="17" height="17"></rect>
    <rect id="pixel-105" x="476" y="221" width="17" height="17"></rect>
    <rect id="pixel-106" x="493" y="221" width="17" height="17"></rect>
    <rect id="pixel-107" x="510" y="221" width="17" height="17"></rect>
    <rect id="pixel-108" x="51" y="238" width="17" height="17"></rect>
    <rect id="pixel-109" x="187" y="238" width="17" height="17"></rect>
    <rect id="pixel-110" x="204" y="238" width="17" height="17"></rect>
    <rect id="pixel-111" x="306" y="238" width="17" height="17"></rect>
    <rect id="pixel-112" x="323" y="238" width="17" height="17"></rect>
    <rect id="pixel-113" x="476" y="238" width="17" height="17"></rect>
    <rect id="pixel-114" x="493" y="238" width="17" height="17"></rect>
    <rect id="pixel-115" x="510" y="238" width="17" height="17"></rect>
    <rect id="pixel-116" x="34" y="255" width="17" height="17"></rect>
    <rect id="pixel-117" x="204" y="255" width="17" height="17"></rect>
    <rect id="pixel-118" x="221" y="255" width="17" height="17"></rect>
    <rect id="pixel-119" x="306" y="255" width="17" height="17"></rect>
    <rect id="pixel-120" x="323" y="255" width="17" height="17"></rect>
    <rect id="pixel-121" x="476" y="255" width="17" height="17"></rect>
    <rect id="pixel-122" x="493" y="255" width="17" height="17"></rect>
    <rect id="pixel-123" x="510" y="255" width="17" height="17"></rect>
    <rect id="pixel-124" x="561" y="255" width="17" height="17"></rect>
    <rect id="pixel-125" x="578" y="255" width="17" height="17"></rect>
    <rect id="pixel-126" x="34" y="272" width="17" height="17"></rect>
    <rect id="pixel-127" x="204" y="272" width="17" height="17"></rect>
    <rect id="pixel-128" x="221" y="272" width="17" height="17"></rect>
    <rect id="pixel-129" x="306" y="272" width="17" height="17"></rect>
    <rect id="pixel-130" x="323" y="272" width="17" height="17"></rect>
    <rect id="pixel-131" x="476" y="272" width="17" height="17"></rect>
    <rect id="pixel-132" x="493" y="272" width="17" height="17"></rect>
    <rect id="pixel-133" x="510" y="272" width="17" height="17"></rect>
    <rect id="pixel-134" x="527" y="272" width="17" height="17"></rect>
    <rect id="pixel-135" x="544" y="272" width="17" height="17"></rect>
    <rect id="pixel-136" x="561" y="272" width="17" height="17"></rect>
    <rect id="pixel-137" x="0" y="289" width="17" height="17"></rect>
    <rect id="pixel-138" x="17" y="289" width="17" height="17"></rect>
    <rect id="pixel-139" x="34" y="289" width="17" height="17"></rect>
    <rect id="pixel-140" x="51" y="289" width="17" height="17"></rect>
    <rect id="pixel-141" x="68" y="289" width="17" height="17"></rect>
    <rect id="pixel-142" x="170" y="289" width="17" height="17"></rect>
    <rect id="pixel-143" x="187" y="289" width="17" height="17"></rect>
    <rect id="pixel-144" x="204" y="289" width="17" height="17"></rect>
    <rect id="pixel-145" x="221" y="289" width="17" height="17"></rect>
    <rect id="pixel-146" x="238" y="289" width="17" height="17"></rect>
    <rect id="pixel-147" x="255" y="289" width="17" height="17"></rect>
    <rect id="pixel-148" x="289" y="289" width="17" height="17"></rect>
    <rect id="pixel-149" x="306" y="289" width="17" height="17"></rect>
    <rect id="pixel-150" x="323" y="289" width="17" height="17"></rect>
    <rect id="pixel-151" x="340" y="289" width="17" height="17"></rect>
    <rect id="pixel-152" x="357" y="289" width="17" height="17"></rect>
    <rect id="pixel-153" x="493" y="289" width="17" height="17"></rect>
    <rect id="pixel-154" x="510" y="289" width="17" height="17"></rect>
    <rect id="pixel-155" x="527" y="289" width="17" height="17"></rect>
    <rect id="pixel-156" x="544" y="289" width="17" height="17"></rect>
    <rect id="pixel-157" x="442" y="340" width="17" height="17"></rect>
    <rect id="pixel-158" x="459" y="340" width="17" height="17"></rect>
    <rect id="pixel-159" x="476" y="340" width="17" height="17"></rect>
    <rect id="pixel-160" x="493" y="340" width="17" height="17"></rect>
    <rect id="pixel-161" x="510" y="340" width="17" height="17"></rect>
    <rect id="pixel-162" x="527" y="340" width="17" height="17"></rect>
    <rect id="pixel-163" x="544" y="340" width="17" height="17"></rect>
    <rect id="pixel-164" x="561" y="340" width="17" height="17"></rect>
    <rect id="pixel-165" x="578" y="340" width="17" height="17"></rect>
    <rect id="pixel-166" x="714" y="340" width="17" height="17"></rect>
    <rect id="pixel-167" x="731" y="340" width="17" height="17"></rect>
    <rect id="pixel-168" x="459" y="357" width="17" height="17"></rect>
    <rect id="pixel-169" x="476" y="357" width="17" height="17"></rect>
    <rect id="pixel-170" x="493" y="357" width="17" height="17"></rect>
    <rect id="pixel-171" x="595" y="357" width="17" height="17"></rect>
    <rect id="pixel-172" x="612" y="357" width="17" height="17"></rect>
    <rect id="pixel-173" x="714" y="357" width="17" height="17"></rect>
    <rect id="pixel-174" x="731" y="357" width="17" height="17"></rect>
    <rect id="pixel-175" x="476" y="374" width="17" height="17"></rect>
    <rect id="pixel-176" x="493" y="374" width="17" height="17"></rect>
    <rect id="pixel-177" x="595" y="374" width="17" height="17"></rect>
    <rect id="pixel-178" x="612" y="374" width="17" height="17"></rect>
    <rect id="pixel-179" x="629" y="374" width="17" height="17"></rect>
    <rect id="pixel-180" x="1394" y="374" width="17" height="17"></rect>
    <rect id="pixel-181" x="476" y="391" width="17" height="17"></rect>
    <rect id="pixel-182" x="493" y="391" width="17" height="17"></rect>
    <rect id="pixel-183" x="612" y="391" width="17" height="17"></rect>
    <rect id="pixel-184" x="629" y="391" width="17" height="17"></rect>
    <rect id="pixel-185" x="646" y="391" width="17" height="17"></rect>
    <rect id="pixel-186" x="1394" y="391" width="17" height="17"></rect>
    <rect id="pixel-187" x="476" y="408" width="17" height="17"></rect>
    <rect id="pixel-188" x="493" y="408" width="17" height="17"></rect>
    <rect id="pixel-189" x="629" y="408" width="17" height="17"></rect>
    <rect id="pixel-190" x="646" y="408" width="17" height="17"></rect>
    <rect id="pixel-191" x="1377" y="408" width="17" height="17"></rect>
    <rect id="pixel-192" x="1394" y="408" width="17" height="17"></rect>
    <rect id="pixel-193" x="476" y="425" width="17" height="17"></rect>
    <rect id="pixel-194" x="493" y="425" width="17" height="17"></rect>
    <rect id="pixel-195" x="629" y="425" width="17" height="17"></rect>
    <rect id="pixel-196" x="646" y="425" width="17" height="17"></rect>
    <rect id="pixel-197" x="663" y="425" width="17" height="17"></rect>
    <rect id="pixel-198" x="731" y="425" width="17" height="17"></rect>
    <rect id="pixel-199" x="833" y="425" width="17" height="17"></rect>
    <rect id="pixel-200" x="884" y="425" width="17" height="17"></rect>
    <rect id="pixel-201" x="901" y="425" width="17" height="17"></rect>
    <rect id="pixel-202" x="918" y="425" width="17" height="17"></rect>
    <rect id="pixel-203" x="1020" y="425" width="17" height="17"></rect>
    <rect id="pixel-204" x="1037" y="425" width="17" height="17"></rect>
    <rect id="pixel-205" x="1054" y="425" width="17" height="17"></rect>
    <rect id="pixel-206" x="1071" y="425" width="17" height="17"></rect>
    <rect id="pixel-207" x="1088" y="425" width="17" height="17"></rect>
    <rect id="pixel-208" x="1241" y="425" width="17" height="17"></rect>
    <rect id="pixel-209" x="1258" y="425" width="17" height="17"></rect>
    <rect id="pixel-210" x="1275" y="425" width="17" height="17"></rect>
    <rect id="pixel-211" x="1292" y="425" width="17" height="17"></rect>
    <rect id="pixel-212" x="1309" y="425" width="17" height="17"></rect>
    <rect id="pixel-213" x="1360" y="425" width="17" height="17"></rect>
    <rect id="pixel-214" x="1377" y="425" width="17" height="17"></rect>
    <rect id="pixel-215" x="1394" y="425" width="17" height="17"></rect>
    <rect id="pixel-216" x="1411" y="425" width="17" height="17"></rect>
    <rect id="pixel-217" x="1428" y="425" width="17" height="17"></rect>
    <rect id="pixel-218" x="1547" y="425" width="17" height="17"></rect>
    <rect id="pixel-219" x="1564" y="425" width="17" height="17"></rect>
    <rect id="pixel-220" x="1581" y="425" width="17" height="17"></rect>
    <rect id="pixel-221" x="1717" y="425" width="17" height="17"></rect>
    <rect id="pixel-222" x="1734" y="425" width="17" height="17"></rect>
    <rect id="pixel-223" x="1785" y="425" width="17" height="17"></rect>
    <rect id="pixel-224" x="1802" y="425" width="17" height="17"></rect>
    <rect id="pixel-225" x="1819" y="425" width="17" height="17"></rect>
    <rect id="pixel-226" x="476" y="442" width="17" height="17"></rect>
    <rect id="pixel-227" x="493" y="442" width="17" height="17"></rect>
    <rect id="pixel-228" x="646" y="442" width="17" height="17"></rect>
    <rect id="pixel-229" x="663" y="442" width="17" height="17"></rect>
    <rect id="pixel-230" x="714" y="442" width="17" height="17"></rect>
    <rect id="pixel-231" x="731" y="442" width="17" height="17"></rect>
    <rect id="pixel-232" x="816" y="442" width="17" height="17"></rect>
    <rect id="pixel-233" x="833" y="442" width="17" height="17"></rect>
    <rect id="pixel-234" x="867" y="442" width="17" height="17"></rect>
    <rect id="pixel-235" x="884" y="442" width="17" height="17"></rect>
    <rect id="pixel-236" x="901" y="442" width="17" height="17"></rect>
    <rect id="pixel-237" x="918" y="442" width="17" height="17"></rect>
    <rect id="pixel-238" x="935" y="442" width="17" height="17"></rect>
    <rect id="pixel-239" x="986" y="442" width="17" height="17"></rect>
    <rect id="pixel-240" x="1003" y="442" width="17" height="17"></rect>
    <rect id="pixel-241" x="1020" y="442" width="17" height="17"></rect>
    <rect id="pixel-242" x="1071" y="442" width="17" height="17"></rect>
    <rect id="pixel-243" x="1088" y="442" width="17" height="17"></rect>
    <rect id="pixel-244" x="1105" y="442" width="17" height="17"></rect>
    <rect id="pixel-245" x="1122" y="442" width="17" height="17"></rect>
    <rect id="pixel-246" x="1207" y="442" width="17" height="17"></rect>
    <rect id="pixel-247" x="1224" y="442" width="17" height="17"></rect>
    <rect id="pixel-248" x="1275" y="442" width="17" height="17"></rect>
    <rect id="pixel-249" x="1292" y="442" width="17" height="17"></rect>
    <rect id="pixel-250" x="1309" y="442" width="17" height="17"></rect>
    <rect id="pixel-251" x="1326" y="442" width="17" height="17"></rect>
    <rect id="pixel-252" x="1377" y="442" width="17" height="17"></rect>
    <rect id="pixel-253" x="1394" y="442" width="17" height="17"></rect>
    <rect id="pixel-254" x="1513" y="442" width="17" height="17"></rect>
    <rect id="pixel-255" x="1530" y="442" width="17" height="17"></rect>
    <rect id="pixel-256" x="1547" y="442" width="17" height="17"></rect>
    <rect id="pixel-257" x="1598" y="442" width="17" height="17"></rect>
    <rect id="pixel-258" x="1615" y="442" width="17" height="17"></rect>
    <rect id="pixel-259" x="1700" y="442" width="17" height="17"></rect>
    <rect id="pixel-260" x="1717" y="442" width="17" height="17"></rect>
    <rect id="pixel-261" x="1734" y="442" width="17" height="17"></rect>
    <rect id="pixel-262" x="1768" y="442" width="17" height="17"></rect>
    <rect id="pixel-263" x="1785" y="442" width="17" height="17"></rect>
    <rect id="pixel-264" x="1802" y="442" width="17" height="17"></rect>
    <rect id="pixel-265" x="1819" y="442" width="17" height="17"></rect>
    <rect id="pixel-266" x="1836" y="442" width="17" height="17"></rect>
    <rect id="pixel-267" x="476" y="459" width="17" height="17"></rect>
    <rect id="pixel-268" x="493" y="459" width="17" height="17"></rect>
    <rect id="pixel-269" x="646" y="459" width="17" height="17"></rect>
    <rect id="pixel-270" x="663" y="459" width="17" height="17"></rect>
    <rect id="pixel-271" x="697" y="459" width="17" height="17"></rect>
    <rect id="pixel-272" x="714" y="459" width="17" height="17"></rect>
    <rect id="pixel-273" x="731" y="459" width="17" height="17"></rect>
    <rect id="pixel-274" x="799" y="459" width="17" height="17"></rect>
    <rect id="pixel-275" x="816" y="459" width="17" height="17"></rect>
    <rect id="pixel-276" x="833" y="459" width="17" height="17"></rect>
    <rect id="pixel-277" x="850" y="459" width="17" height="17"></rect>
    <rect id="pixel-278" x="867" y="459" width="17" height="17"></rect>
    <rect id="pixel-279" x="918" y="459" width="17" height="17"></rect>
    <rect id="pixel-280" x="935" y="459" width="17" height="17"></rect>
    <rect id="pixel-281" x="969" y="459" width="17" height="17"></rect>
    <rect id="pixel-282" x="986" y="459" width="17" height="17"></rect>
    <rect id="pixel-283" x="1003" y="459" width="17" height="17"></rect>
    <rect id="pixel-284" x="1088" y="459" width="17" height="17"></rect>
    <rect id="pixel-285" x="1105" y="459" width="17" height="17"></rect>
    <rect id="pixel-286" x="1122" y="459" width="17" height="17"></rect>
    <rect id="pixel-287" x="1190" y="459" width="17" height="17"></rect>
    <rect id="pixel-288" x="1207" y="459" width="17" height="17"></rect>
    <rect id="pixel-289" x="1292" y="459" width="17" height="17"></rect>
    <rect id="pixel-290" x="1309" y="459" width="17" height="17"></rect>
    <rect id="pixel-291" x="1326" y="459" width="17" height="17"></rect>
    <rect id="pixel-292" x="1377" y="459" width="17" height="17"></rect>
    <rect id="pixel-293" x="1394" y="459" width="17" height="17"></rect>
    <rect id="pixel-294" x="1496" y="459" width="17" height="17"></rect>
    <rect id="pixel-295" x="1513" y="459" width="17" height="17"></rect>
    <rect id="pixel-296" x="1530" y="459" width="17" height="17"></rect>
    <rect id="pixel-297" x="1615" y="459" width="17" height="17"></rect>
    <rect id="pixel-298" x="1632" y="459" width="17" height="17"></rect>
    <rect id="pixel-299" x="1683" y="459" width="17" height="17"></rect>
    <rect id="pixel-300" x="1700" y="459" width="17" height="17"></rect>
    <rect id="pixel-301" x="1717" y="459" width="17" height="17"></rect>
    <rect id="pixel-302" x="1734" y="459" width="17" height="17"></rect>
    <rect id="pixel-303" x="1751" y="459" width="17" height="17"></rect>
    <rect id="pixel-304" x="1802" y="459" width="17" height="17"></rect>
    <rect id="pixel-305" x="1819" y="459" width="17" height="17"></rect>
    <rect id="pixel-306" x="1836" y="459" width="17" height="17"></rect>
    <rect id="pixel-307" x="476" y="476" width="17" height="17"></rect>
    <rect id="pixel-308" x="493" y="476" width="17" height="17"></rect>
    <rect id="pixel-309" x="646" y="476" width="17" height="17"></rect>
    <rect id="pixel-310" x="663" y="476" width="17" height="17"></rect>
    <rect id="pixel-311" x="714" y="476" width="17" height="17"></rect>
    <rect id="pixel-312" x="731" y="476" width="17" height="17"></rect>
    <rect id="pixel-313" x="816" y="476" width="17" height="17"></rect>
    <rect id="pixel-314" x="833" y="476" width="17" height="17"></rect>
    <rect id="pixel-315" x="850" y="476" width="17" height="17"></rect>
    <rect id="pixel-316" x="969" y="476" width="17" height="17"></rect>
    <rect id="pixel-317" x="986" y="476" width="17" height="17"></rect>
    <rect id="pixel-318" x="1003" y="476" width="17" height="17"></rect>
    <rect id="pixel-319" x="1105" y="476" width="17" height="17"></rect>
    <rect id="pixel-320" x="1122" y="476" width="17" height="17"></rect>
    <rect id="pixel-321" x="1139" y="476" width="17" height="17"></rect>
    <rect id="pixel-322" x="1190" y="476" width="17" height="17"></rect>
    <rect id="pixel-323" x="1207" y="476" width="17" height="17"></rect>
    <rect id="pixel-324" x="1309" y="476" width="17" height="17"></rect>
    <rect id="pixel-325" x="1326" y="476" width="17" height="17"></rect>
    <rect id="pixel-326" x="1377" y="476" width="17" height="17"></rect>
    <rect id="pixel-327" x="1394" y="476" width="17" height="17"></rect>
    <rect id="pixel-328" x="1496" y="476" width="17" height="17"></rect>
    <rect id="pixel-329" x="1513" y="476" width="17" height="17"></rect>
    <rect id="pixel-330" x="1530" y="476" width="17" height="17"></rect>
    <rect id="pixel-331" x="1615" y="476" width="17" height="17"></rect>
    <rect id="pixel-332" x="1632" y="476" width="17" height="17"></rect>
    <rect id="pixel-333" x="1649" y="476" width="17" height="17"></rect>
    <rect id="pixel-334" x="1700" y="476" width="17" height="17"></rect>
    <rect id="pixel-335" x="1717" y="476" width="17" height="17"></rect>
    <rect id="pixel-336" x="1734" y="476" width="17" height="17"></rect>
    <rect id="pixel-337" x="476" y="493" width="17" height="17"></rect>
    <rect id="pixel-338" x="493" y="493" width="17" height="17"></rect>
    <rect id="pixel-339" x="646" y="493" width="17" height="17"></rect>
    <rect id="pixel-340" x="663" y="493" width="17" height="17"></rect>
    <rect id="pixel-341" x="714" y="493" width="17" height="17"></rect>
    <rect id="pixel-342" x="731" y="493" width="17" height="17"></rect>
    <rect id="pixel-343" x="816" y="493" width="17" height="17"></rect>
    <rect id="pixel-344" x="833" y="493" width="17" height="17"></rect>
    <rect id="pixel-345" x="952" y="493" width="17" height="17"></rect>
    <rect id="pixel-346" x="969" y="493" width="17" height="17"></rect>
    <rect id="pixel-347" x="986" y="493" width="17" height="17"></rect>
    <rect id="pixel-348" x="1105" y="493" width="17" height="17"></rect>
    <rect id="pixel-349" x="1122" y="493" width="17" height="17"></rect>
    <rect id="pixel-350" x="1139" y="493" width="17" height="17"></rect>
    <rect id="pixel-351" x="1173" y="493" width="17" height="17"></rect>
    <rect id="pixel-352" x="1190" y="493" width="17" height="17"></rect>
    <rect id="pixel-353" x="1377" y="493" width="17" height="17"></rect>
    <rect id="pixel-354" x="1394" y="493" width="17" height="17"></rect>
    <rect id="pixel-355" x="1479" y="493" width="17" height="17"></rect>
    <rect id="pixel-356" x="1496" y="493" width="17" height="17"></rect>
    <rect id="pixel-357" x="1513" y="493" width="17" height="17"></rect>
    <rect id="pixel-358" x="1632" y="493" width="17" height="17"></rect>
    <rect id="pixel-359" x="1649" y="493" width="17" height="17"></rect>
    <rect id="pixel-360" x="1700" y="493" width="17" height="17"></rect>
    <rect id="pixel-361" x="1717" y="493" width="17" height="17"></rect>
    <rect id="pixel-362" x="1734" y="493" width="17" height="17"></rect>
    <rect id="pixel-363" x="476" y="510" width="17" height="17"></rect>
    <rect id="pixel-364" x="493" y="510" width="17" height="17"></rect>
    <rect id="pixel-365" x="646" y="510" width="17" height="17"></rect>
    <rect id="pixel-366" x="663" y="510" width="17" height="17"></rect>
    <rect id="pixel-367" x="714" y="510" width="17" height="17"></rect>
    <rect id="pixel-368" x="731" y="510" width="17" height="17"></rect>
    <rect id="pixel-369" x="816" y="510" width="17" height="17"></rect>
    <rect id="pixel-370" x="833" y="510" width="17" height="17"></rect>
    <rect id="pixel-371" x="952" y="510" width="17" height="17"></rect>
    <rect id="pixel-372" x="969" y="510" width="17" height="17"></rect>
    <rect id="pixel-373" x="986" y="510" width="17" height="17"></rect>
    <rect id="pixel-374" x="1003" y="510" width="17" height="17"></rect>
    <rect id="pixel-375" x="1020" y="510" width="17" height="17"></rect>
    <rect id="pixel-376" x="1037" y="510" width="17" height="17"></rect>
    <rect id="pixel-377" x="1054" y="510" width="17" height="17"></rect>
    <rect id="pixel-378" x="1071" y="510" width="17" height="17"></rect>
    <rect id="pixel-379" x="1088" y="510" width="17" height="17"></rect>
    <rect id="pixel-380" x="1105" y="510" width="17" height="17"></rect>
    <rect id="pixel-381" x="1122" y="510" width="17" height="17"></rect>
    <rect id="pixel-382" x="1139" y="510" width="17" height="17"></rect>
    <rect id="pixel-383" x="1173" y="510" width="17" height="17"></rect>
    <rect id="pixel-384" x="1190" y="510" width="17" height="17"></rect>
    <rect id="pixel-385" x="1377" y="510" width="17" height="17"></rect>
    <rect id="pixel-386" x="1394" y="510" width="17" height="17"></rect>
    <rect id="pixel-387" x="1479" y="510" width="17" height="17"></rect>
    <rect id="pixel-388" x="1496" y="510" width="17" height="17"></rect>
    <rect id="pixel-389" x="1513" y="510" width="17" height="17"></rect>
    <rect id="pixel-390" x="1632" y="510" width="17" height="17"></rect>
    <rect id="pixel-391" x="1649" y="510" width="17" height="17"></rect>
    <rect id="pixel-392" x="1666" y="510" width="17" height="17"></rect>
    <rect id="pixel-393" x="1700" y="510" width="17" height="17"></rect>
    <rect id="pixel-394" x="1717" y="510" width="17" height="17"></rect>
    <rect id="pixel-395" x="1734" y="510" width="17" height="17"></rect>
    <rect id="pixel-396" x="476" y="527" width="17" height="17"></rect>
    <rect id="pixel-397" x="493" y="527" width="17" height="17"></rect>
    <rect id="pixel-398" x="646" y="527" width="17" height="17"></rect>
    <rect id="pixel-399" x="663" y="527" width="17" height="17"></rect>
    <rect id="pixel-400" x="714" y="527" width="17" height="17"></rect>
    <rect id="pixel-401" x="731" y="527" width="17" height="17"></rect>
    <rect id="pixel-402" x="816" y="527" width="17" height="17"></rect>
    <rect id="pixel-403" x="833" y="527" width="17" height="17"></rect>
    <rect id="pixel-404" x="952" y="527" width="17" height="17"></rect>
    <rect id="pixel-405" x="969" y="527" width="17" height="17"></rect>
    <rect id="pixel-406" x="986" y="527" width="17" height="17"></rect>
    <rect id="pixel-407" x="1173" y="527" width="17" height="17"></rect>
    <rect id="pixel-408" x="1190" y="527" width="17" height="17"></rect>
    <rect id="pixel-409" x="1377" y="527" width="17" height="17"></rect>
    <rect id="pixel-410" x="1394" y="527" width="17" height="17"></rect>
    <rect id="pixel-411" x="1479" y="527" width="17" height="17"></rect>
    <rect id="pixel-412" x="1496" y="527" width="17" height="17"></rect>
    <rect id="pixel-413" x="1513" y="527" width="17" height="17"></rect>
    <rect id="pixel-414" x="1632" y="527" width="17" height="17"></rect>
    <rect id="pixel-415" x="1649" y="527" width="17" height="17"></rect>
    <rect id="pixel-416" x="1666" y="527" width="17" height="17"></rect>
    <rect id="pixel-417" x="1700" y="527" width="17" height="17"></rect>
    <rect id="pixel-418" x="1717" y="527" width="17" height="17"></rect>
    <rect id="pixel-419" x="1734" y="527" width="17" height="17"></rect>
    <rect id="pixel-420" x="476" y="544" width="17" height="17"></rect>
    <rect id="pixel-421" x="493" y="544" width="17" height="17"></rect>
    <rect id="pixel-422" x="646" y="544" width="17" height="17"></rect>
    <rect id="pixel-423" x="663" y="544" width="17" height="17"></rect>
    <rect id="pixel-424" x="714" y="544" width="17" height="17"></rect>
    <rect id="pixel-425" x="731" y="544" width="17" height="17"></rect>
    <rect id="pixel-426" x="816" y="544" width="17" height="17"></rect>
    <rect id="pixel-427" x="833" y="544" width="17" height="17"></rect>
    <rect id="pixel-428" x="952" y="544" width="17" height="17"></rect>
    <rect id="pixel-429" x="969" y="544" width="17" height="17"></rect>
    <rect id="pixel-430" x="986" y="544" width="17" height="17"></rect>
    <rect id="pixel-431" x="1173" y="544" width="17" height="17"></rect>
    <rect id="pixel-432" x="1190" y="544" width="17" height="17"></rect>
    <rect id="pixel-433" x="1377" y="544" width="17" height="17"></rect>
    <rect id="pixel-434" x="1394" y="544" width="17" height="17"></rect>
    <rect id="pixel-435" x="1479" y="544" width="17" height="17"></rect>
    <rect id="pixel-436" x="1496" y="544" width="17" height="17"></rect>
    <rect id="pixel-437" x="1513" y="544" width="17" height="17"></rect>
    <rect id="pixel-438" x="1632" y="544" width="17" height="17"></rect>
    <rect id="pixel-439" x="1649" y="544" width="17" height="17"></rect>
    <rect id="pixel-440" x="1666" y="544" width="17" height="17"></rect>
    <rect id="pixel-441" x="1700" y="544" width="17" height="17"></rect>
    <rect id="pixel-442" x="1717" y="544" width="17" height="17"></rect>
    <rect id="pixel-443" x="1734" y="544" width="17" height="17"></rect>
    <rect id="pixel-444" x="476" y="561" width="17" height="17"></rect>
    <rect id="pixel-445" x="493" y="561" width="17" height="17"></rect>
    <rect id="pixel-446" x="629" y="561" width="17" height="17"></rect>
    <rect id="pixel-447" x="646" y="561" width="17" height="17"></rect>
    <rect id="pixel-448" x="714" y="561" width="17" height="17"></rect>
    <rect id="pixel-449" x="731" y="561" width="17" height="17"></rect>
    <rect id="pixel-450" x="816" y="561" width="17" height="17"></rect>
    <rect id="pixel-451" x="833" y="561" width="17" height="17"></rect>
    <rect id="pixel-452" x="952" y="561" width="17" height="17"></rect>
    <rect id="pixel-453" x="969" y="561" width="17" height="17"></rect>
    <rect id="pixel-454" x="986" y="561" width="17" height="17"></rect>
    <rect id="pixel-455" x="1173" y="561" width="17" height="17"></rect>
    <rect id="pixel-456" x="1190" y="561" width="17" height="17"></rect>
    <rect id="pixel-457" x="1377" y="561" width="17" height="17"></rect>
    <rect id="pixel-458" x="1394" y="561" width="17" height="17"></rect>
    <rect id="pixel-459" x="1479" y="561" width="17" height="17"></rect>
    <rect id="pixel-460" x="1496" y="561" width="17" height="17"></rect>
    <rect id="pixel-461" x="1513" y="561" width="17" height="17"></rect>
    <rect id="pixel-462" x="1632" y="561" width="17" height="17"></rect>
    <rect id="pixel-463" x="1649" y="561" width="17" height="17"></rect>
    <rect id="pixel-464" x="1666" y="561" width="17" height="17"></rect>
    <rect id="pixel-465" x="1700" y="561" width="17" height="17"></rect>
    <rect id="pixel-466" x="1717" y="561" width="17" height="17"></rect>
    <rect id="pixel-467" x="1734" y="561" width="17" height="17"></rect>
    <rect id="pixel-468" x="476" y="578" width="17" height="17"></rect>
    <rect id="pixel-469" x="493" y="578" width="17" height="17"></rect>
    <rect id="pixel-470" x="612" y="578" width="17" height="17"></rect>
    <rect id="pixel-471" x="629" y="578" width="17" height="17"></rect>
    <rect id="pixel-472" x="714" y="578" width="17" height="17"></rect>
    <rect id="pixel-473" x="731" y="578" width="17" height="17"></rect>
    <rect id="pixel-474" x="816" y="578" width="17" height="17"></rect>
    <rect id="pixel-475" x="833" y="578" width="17" height="17"></rect>
    <rect id="pixel-476" x="969" y="578" width="17" height="17"></rect>
    <rect id="pixel-477" x="986" y="578" width="17" height="17"></rect>
    <rect id="pixel-478" x="1003" y="578" width="17" height="17"></rect>
    <rect id="pixel-479" x="1105" y="578" width="17" height="17"></rect>
    <rect id="pixel-480" x="1122" y="578" width="17" height="17"></rect>
    <rect id="pixel-481" x="1173" y="578" width="17" height="17"></rect>
    <rect id="pixel-482" x="1190" y="578" width="17" height="17"></rect>
    <rect id="pixel-483" x="1207" y="578" width="17" height="17"></rect>
    <rect id="pixel-484" x="1326" y="578" width="17" height="17"></rect>
    <rect id="pixel-485" x="1377" y="578" width="17" height="17"></rect>
    <rect id="pixel-486" x="1394" y="578" width="17" height="17"></rect>
    <rect id="pixel-487" x="1496" y="578" width="17" height="17"></rect>
    <rect id="pixel-488" x="1513" y="578" width="17" height="17"></rect>
    <rect id="pixel-489" x="1615" y="578" width="17" height="17"></rect>
    <rect id="pixel-490" x="1632" y="578" width="17" height="17"></rect>
    <rect id="pixel-491" x="1649" y="578" width="17" height="17"></rect>
    <rect id="pixel-492" x="1700" y="578" width="17" height="17"></rect>
    <rect id="pixel-493" x="1717" y="578" width="17" height="17"></rect>
    <rect id="pixel-494" x="1734" y="578" width="17" height="17"></rect>
    <rect id="pixel-495" x="476" y="595" width="17" height="17"></rect>
    <rect id="pixel-496" x="493" y="595" width="17" height="17"></rect>
    <rect id="pixel-497" x="612" y="595" width="17" height="17"></rect>
    <rect id="pixel-498" x="629" y="595" width="17" height="17"></rect>
    <rect id="pixel-499" x="714" y="595" width="17" height="17"></rect>
    <rect id="pixel-500" x="731" y="595" width="17" height="17"></rect>
    <rect id="pixel-501" x="816" y="595" width="17" height="17"></rect>
    <rect id="pixel-502" x="833" y="595" width="17" height="17"></rect>
    <rect id="pixel-503" x="969" y="595" width="17" height="17"></rect>
    <rect id="pixel-504" x="986" y="595" width="17" height="17"></rect>
    <rect id="pixel-505" x="1003" y="595" width="17" height="17"></rect>
    <rect id="pixel-506" x="1020" y="595" width="17" height="17"></rect>
    <rect id="pixel-507" x="1088" y="595" width="17" height="17"></rect>
    <rect id="pixel-508" x="1105" y="595" width="17" height="17"></rect>
    <rect id="pixel-509" x="1122" y="595" width="17" height="17"></rect>
    <rect id="pixel-510" x="1190" y="595" width="17" height="17"></rect>
    <rect id="pixel-511" x="1207" y="595" width="17" height="17"></rect>
    <rect id="pixel-512" x="1224" y="595" width="17" height="17"></rect>
    <rect id="pixel-513" x="1309" y="595" width="17" height="17"></rect>
    <rect id="pixel-514" x="1326" y="595" width="17" height="17"></rect>
    <rect id="pixel-515" x="1377" y="595" width="17" height="17"></rect>
    <rect id="pixel-516" x="1394" y="595" width="17" height="17"></rect>
    <rect id="pixel-517" x="1462" y="595" width="17" height="17"></rect>
    <rect id="pixel-518" x="1496" y="595" width="17" height="17"></rect>
    <rect id="pixel-519" x="1513" y="595" width="17" height="17"></rect>
    <rect id="pixel-520" x="1530" y="595" width="17" height="17"></rect>
    <rect id="pixel-521" x="1615" y="595" width="17" height="17"></rect>
    <rect id="pixel-522" x="1632" y="595" width="17" height="17"></rect>
    <rect id="pixel-523" x="1649" y="595" width="17" height="17"></rect>
    <rect id="pixel-524" x="1700" y="595" width="17" height="17"></rect>
    <rect id="pixel-525" x="1717" y="595" width="17" height="17"></rect>
    <rect id="pixel-526" x="1734" y="595" width="17" height="17"></rect>
    <rect id="pixel-527" x="476" y="612" width="17" height="17"></rect>
    <rect id="pixel-528" x="493" y="612" width="17" height="17"></rect>
    <rect id="pixel-529" x="510" y="612" width="17" height="17"></rect>
    <rect id="pixel-530" x="595" y="612" width="17" height="17"></rect>
    <rect id="pixel-531" x="612" y="612" width="17" height="17"></rect>
    <rect id="pixel-532" x="714" y="612" width="17" height="17"></rect>
    <rect id="pixel-533" x="731" y="612" width="17" height="17"></rect>
    <rect id="pixel-534" x="816" y="612" width="17" height="17"></rect>
    <rect id="pixel-535" x="833" y="612" width="17" height="17"></rect>
    <rect id="pixel-536" x="986" y="612" width="17" height="17"></rect>
    <rect id="pixel-537" x="1003" y="612" width="17" height="17"></rect>
    <rect id="pixel-538" x="1020" y="612" width="17" height="17"></rect>
    <rect id="pixel-539" x="1037" y="612" width="17" height="17"></rect>
    <rect id="pixel-540" x="1054" y="612" width="17" height="17"></rect>
    <rect id="pixel-541" x="1071" y="612" width="17" height="17"></rect>
    <rect id="pixel-542" x="1088" y="612" width="17" height="17"></rect>
    <rect id="pixel-543" x="1105" y="612" width="17" height="17"></rect>
    <rect id="pixel-544" x="1190" y="612" width="17" height="17"></rect>
    <rect id="pixel-545" x="1207" y="612" width="17" height="17"></rect>
    <rect id="pixel-546" x="1224" y="612" width="17" height="17"></rect>
    <rect id="pixel-547" x="1241" y="612" width="17" height="17"></rect>
    <rect id="pixel-548" x="1258" y="612" width="17" height="17"></rect>
    <rect id="pixel-549" x="1275" y="612" width="17" height="17"></rect>
    <rect id="pixel-550" x="1292" y="612" width="17" height="17"></rect>
    <rect id="pixel-551" x="1309" y="612" width="17" height="17"></rect>
    <rect id="pixel-552" x="1377" y="612" width="17" height="17"></rect>
    <rect id="pixel-553" x="1394" y="612" width="17" height="17"></rect>
    <rect id="pixel-554" x="1411" y="612" width="17" height="17"></rect>
    <rect id="pixel-555" x="1428" y="612" width="17" height="17"></rect>
    <rect id="pixel-556" x="1445" y="612" width="17" height="17"></rect>
    <rect id="pixel-557" x="1513" y="612" width="17" height="17"></rect>
    <rect id="pixel-558" x="1530" y="612" width="17" height="17"></rect>
    <rect id="pixel-559" x="1598" y="612" width="17" height="17"></rect>
    <rect id="pixel-560" x="1615" y="612" width="17" height="17"></rect>
    <rect id="pixel-561" x="1632" y="612" width="17" height="17"></rect>
    <rect id="pixel-562" x="1700" y="612" width="17" height="17"></rect>
    <rect id="pixel-563" x="1717" y="612" width="17" height="17"></rect>
    <rect id="pixel-564" x="1734" y="612" width="17" height="17"></rect>
    <rect id="pixel-565" x="442" y="629" width="17" height="17"></rect>
    <rect id="pixel-566" x="459" y="629" width="17" height="17"></rect>
    <rect id="pixel-567" x="476" y="629" width="17" height="17"></rect>
    <rect id="pixel-568" x="493" y="629" width="17" height="17"></rect>
    <rect id="pixel-569" x="510" y="629" width="17" height="17"></rect>
    <rect id="pixel-570" x="527" y="629" width="17" height="17"></rect>
    <rect id="pixel-571" x="544" y="629" width="17" height="17"></rect>
    <rect id="pixel-572" x="561" y="629" width="17" height="17"></rect>
    <rect id="pixel-573" x="578" y="629" width="17" height="17"></rect>
    <rect id="pixel-574" x="680" y="629" width="17" height="17"></rect>
    <rect id="pixel-575" x="697" y="629" width="17" height="17"></rect>
    <rect id="pixel-576" x="714" y="629" width="17" height="17"></rect>
    <rect id="pixel-577" x="731" y="629" width="17" height="17"></rect>
    <rect id="pixel-578" x="748" y="629" width="17" height="17"></rect>
    <rect id="pixel-579" x="765" y="629" width="17" height="17"></rect>
    <rect id="pixel-580" x="799" y="629" width="17" height="17"></rect>
    <rect id="pixel-581" x="816" y="629" width="17" height="17"></rect>
    <rect id="pixel-582" x="833" y="629" width="17" height="17"></rect>
    <rect id="pixel-583" x="850" y="629" width="17" height="17"></rect>
    <rect id="pixel-584" x="867" y="629" width="17" height="17"></rect>
    <rect id="pixel-585" x="1020" y="629" width="17" height="17"></rect>
    <rect id="pixel-586" x="1037" y="629" width="17" height="17"></rect>
    <rect id="pixel-587" x="1054" y="629" width="17" height="17"></rect>
    <rect id="pixel-588" x="1071" y="629" width="17" height="17"></rect>
    <rect id="pixel-589" x="1224" y="629" width="17" height="17"></rect>
    <rect id="pixel-590" x="1241" y="629" width="17" height="17"></rect>
    <rect id="pixel-591" x="1258" y="629" width="17" height="17"></rect>
    <rect id="pixel-592" x="1275" y="629" width="17" height="17"></rect>
    <rect id="pixel-593" x="1394" y="629" width="17" height="17"></rect>
    <rect id="pixel-594" x="1411" y="629" width="17" height="17"></rect>
    <rect id="pixel-595" x="1428" y="629" width="17" height="17"></rect>
    <rect id="pixel-596" x="1445" y="629" width="17" height="17"></rect>
    <rect id="pixel-597" x="1547" y="629" width="17" height="17"></rect>
    <rect id="pixel-598" x="1564" y="629" width="17" height="17"></rect>
    <rect id="pixel-599" x="1581" y="629" width="17" height="17"></rect>
    <rect id="pixel-600" x="1598" y="629" width="17" height="17"></rect>
    <rect id="pixel-601" x="1683" y="629" width="17" height="17"></rect>
    <rect id="pixel-602" x="1700" y="629" width="17" height="17"></rect>
    <rect id="pixel-603" x="1717" y="629" width="17" height="17"></rect>
    <rect id="pixel-604" x="1734" y="629" width="17" height="17"></rect>
    <rect id="pixel-605" x="1751" y="629" width="17" height="17"></rect>
    <rect id="pixel-606" x="1768" y="629" width="17" height="17"></rect>
  </g>
</svg>