<?xml version="1.0"?>
<svg id="Layer_1" data-name="Layer 1" xmlns="http://www.w3.org/2000/svg" viewBox="0 0 1975.37 221.6">
  <text></text>
  <g>
    <path d="M1.36,189.58h12.81l21.78-102.47h-12.81l1.36-6.4h38.43l-1.36,6.4h-12.81l-21.78,102.47h38.43l1.36-6.4h6.4l1.36-6.4h6.4l2.72-12.81h6.4l-5.45,25.62h-6.4l-1.36,6.4H0l1.36-6.4Z"></path>
    <path d="M98.79,183.18l2.72-12.81h-6.4l6.81-32.02h6.4l2.72-12.81h6.4l1.36-6.4h12.81l1.36-6.4h25.62l-1.36,6.4h12.81l-2.72,12.81h6.4l-4.08,19.21h-57.64l-4.08,19.21h6.4l-1.36,6.4h6.4l-1.36,6.4h25.62l1.36-6.4h6.4l1.36-6.4h6.4l-2.72,12.81h-6.4l-1.36,6.4h-12.81l-1.36,6.4h-19.21l1.36-6.4h-12.81l1.36-6.4h-6.4ZM131.62,119.13l-1.36,6.4h-6.4l-2.72,12.81h-6.4l-1.36,6.4h44.83l2.72-12.81h-6.4l1.36-6.4h-6.4l1.36-6.4h-19.21Z"></path>
    <path d="M207.67,183.18l-1.36,6.4h-6.4l-1.36,6.4h-19.21l1.36-6.4h-6.4l14.97-70.45h-6.4l1.36-6.4h6.4l1.36-6.4h6.4l2.72-12.81h6.4l-4.08,19.21h12.81l-1.36,6.4h-12.81l-13.61,64.05h19.21l1.36-6.4h6.4l-1.36,6.4h-6.4Z"></path>
    <path d="M235.45,112.73l1.36-6.4h6.4l2.72-12.81h-6.4l2.72-12.81h12.81l-5.45,25.62h-6.4l-1.36,6.4h-6.4Z"></path>
    <path d="M276.76,189.58h-6.4l-1.36,6.4h-32.02l1.36-6.4h-6.4l4.08-19.21h6.4l-1.36,6.4h6.4l-1.36,6.4h6.4l-1.36,6.4h19.21l1.36-6.4h6.4l2.72-12.81h-6.4l1.36-6.4h-6.4l1.36-6.4h-12.81l1.36-6.4h-12.81l1.36-6.4h-6.4l4.08-19.21h6.4l1.36-6.4h6.4l1.36-6.4h32.02l-1.36,6.4h6.4l-4.08,19.21h-6.4l1.36-6.4h-6.4l1.36-6.4h-6.4l1.36-6.4h-12.81l-1.36,6.4h-6.4l-2.72,12.81h6.4l-1.36,6.4h12.81l-1.36,6.4h12.81l-1.36,6.4h6.4l-5.45,25.62h-6.4l-1.36,6.4Z"></path>
    <path d="M341.76,215.2h-6.4l1.36-6.4h-6.4l2.72-12.81h6.4l1.36-6.4h6.4l1.36-6.4h-6.4l2.72-12.81h6.4l2.72-12.81h-6.4l1.36-6.4h-6.4l5.45-25.62h6.4l1.36-6.4h12.81l1.36-6.4h32.02l-1.36,6.4h19.21l-1.36,6.4h-6.4l-5.45,25.62h-6.4l-1.36,6.4h-6.4l-1.36,6.4h-25.62l-1.36,6.4h-6.4l-1.36,6.4h38.43l-1.36,6.4h6.4l-1.36,6.4h6.4l-4.08,19.21h-6.4l-1.36,6.4h-12.81l-1.36,6.4h-38.43l1.36-6.4ZM368.59,119.13l-1.36,6.4h-6.4l-5.45,25.62h6.4l-1.36,6.4h25.62l1.36-6.4h6.4l5.45-25.62h-6.4l1.36-6.4h-25.62ZM380.19,215.2l1.36-6.4h6.4l2.72-12.81h-6.4l1.36-6.4h-32.02l-1.36,6.4h-6.4l-2.72,12.81h6.4l-1.36,6.4h32.02Z"></path>
    <path d="M429.11,195.99l1.36-6.4h-12.81l1.36-6.4h-6.4l2.72-12.81h-6.4l6.81-32.02h6.4l2.72-12.81h6.4l1.36-6.4h12.81l1.36-6.4h19.21l-1.36,6.4h12.81l-1.36,6.4h6.4l-2.72,12.81h6.4l-6.81,32.02h-6.4l-2.72,12.81h-6.4l-1.36,6.4h-12.81l-1.36,6.4h-19.21ZM449.68,189.58l1.36-6.4h6.4l2.72-12.81h6.4l6.81-32.02h-6.4l2.72-12.81h-6.4l1.36-6.4h-19.21l-1.36,6.4h-6.4l-2.72,12.81h-6.4l-6.81,32.02h6.4l-2.72,12.81h6.4l-1.36,6.4h19.21Z"></path>
    <path d="M563.6,195.99h-38.43l1.36-6.4h12.81l12.25-57.64h-6.4l1.36-6.4h6.4l1.36-6.4h6.4l1.36-6.4h6.4l-2.72,12.81h6.4l1.36-6.4h6.4l1.36-6.4h19.21l-1.36,6.4h6.4l-1.36,6.4h12.81l1.36-6.4h6.4l1.36-6.4h19.21l-1.36,6.4h6.4l-1.36,6.4h6.4l-13.61,64.05h12.81l-1.36,6.4h-38.43l1.36-6.4h12.81l12.25-57.64h-6.4l1.36-6.4h-19.21l-1.36,6.4h-6.4l-12.25,57.64h12.81l-1.36,6.4h-38.43l1.36-6.4h12.81l12.25-57.64h-6.4l1.36-6.4h-19.21l-1.36,6.4h-6.4l-12.25,57.64h12.81l-1.36,6.4Z"></path>
    <path d="M708.99,144.75l1.36-6.4h6.4l2.72-12.81h-6.4l1.36-6.4h-19.21l-1.36,6.4h-6.4l-2.72,12.81h-12.81l2.72-12.81h6.4l1.36-6.4h12.81l1.36-6.4h32.02l-1.36,6.4h6.4l-13.61,64.05h12.81l-1.36,6.4h-6.4l-1.36,6.4h-12.81l1.36-6.4h-6.4l1.36-6.4h-6.4l-1.36,6.4h-12.81l-1.36,6.4h-19.21l1.36-6.4h-6.4l5.45-25.62h6.4l1.36-6.4h6.4l1.36-6.4h12.81l1.36-6.4h12.81ZM694.82,151.15l-1.36,6.4h-6.4l-1.36,6.4h-6.4l-4.08,19.21h19.21l1.36-6.4h6.4l1.36-6.4h6.4l5.45-25.62h-6.4l-1.36,6.4h-12.81Z"></path>
    <path d="M792.25,144.75h-6.4l-2.72,12.81h6.4l-1.36,6.4h6.4l-1.36,6.4h6.4l-1.36,6.4h6.4l-1.36,6.4h6.4l-1.36,6.4h12.81l-1.36,6.4h-32.02l1.36-6.4h6.4l1.36-6.4h-6.4l1.36-6.4h-6.4l1.36-6.4h-6.4l1.36-6.4h-6.4l1.36-6.4h-6.4l-6.81,32.02h12.81l-1.36,6.4h-38.43l1.36-6.4h12.81l19.06-89.66h-6.4l1.36-6.4h6.4l1.36-6.4h6.4l1.36-6.4h6.4l-14.97,70.45h6.4l1.36-6.4h6.4l1.36-6.4h6.4l1.36-6.4h6.4l1.36-6.4h6.4l1.36-6.4h-6.4l1.36-6.4h25.62l-1.36,6.4h-12.81l-1.36,6.4h-6.4l-1.36,6.4h-6.4l-1.36,6.4h-6.4l-1.36,6.4Z"></path>
    <path d="M828.91,183.18l2.72-12.81h-6.4l6.81-32.02h6.4l2.72-12.81h6.41l1.36-6.4h12.81l1.36-6.4h25.62l-1.36,6.4h12.81l-2.72,12.81h6.4l-4.08,19.21h-57.64l-4.08,19.21h6.4l-1.36,6.4h6.4l-1.36,6.4h25.62l1.36-6.4h6.41l1.36-6.4h6.4l-2.72,12.81h-6.4l-1.36,6.4h-12.81l-1.36,6.4h-19.21l1.36-6.4h-12.81l1.36-6.4h-6.41ZM861.74,119.13l-1.36,6.4h-6.4l-2.72,12.81h-6.4l-1.36,6.4h44.83l2.72-12.81h-6.41l1.36-6.4h-6.4l1.36-6.4h-19.21Z"></path>
    <path d="M994.07,189.58l-1.36,6.4h-44.83l1.36-6.4h-6.4l4.08-19.21h6.4l-1.36,6.4h6.41l-1.36,6.4h6.4l-1.36,6.4h32.02l1.36-6.4h6.41l5.45-25.62h-6.41l1.36-6.4h-6.4l1.36-6.4h-12.81l1.36-6.4h-12.81l1.36-6.4h-12.81l2.72-12.81h-6.4l4.08-19.21h6.4l1.36-6.4h6.41l1.36-6.4h6.4l1.36-6.4h38.43l-1.36,6.4h6.4l-4.08,19.21h-6.4l1.36-6.4h-6.41l1.36-6.4h-6.4l1.36-6.4h-25.62l-1.36,6.4h-6.4l-5.45,25.62h12.81l-1.36,6.4h12.81l-1.36,6.4h12.81l-1.36,6.4h6.41l-1.36,6.4h6.4l-1.36,6.4h6.4l-5.45,25.62h-6.4l-1.36,6.4h-6.4l-1.36,6.4h-6.41Z"></path>
    <path d="M1043.94,195.99l1.36-6.4h-12.81l1.36-6.4h-6.41l2.72-12.81h-6.4l6.81-32.02h6.4l2.72-12.81h6.41l1.36-6.4h12.81l1.36-6.4h19.21l-1.36,6.4h12.81l-1.36,6.4h6.4l-2.72,12.81h6.4l-6.81,32.02h-6.4l-2.72,12.81h-6.4l-1.36,6.4h-12.81l-1.36,6.4h-19.21ZM1064.52,189.58l1.36-6.4h6.4l2.72-12.81h6.41l6.81-32.02h-6.41l2.72-12.81h-6.4l1.36-6.4h-19.21l-1.36,6.4h-6.4l-2.72,12.81h-6.4l-6.81,32.02h6.4l-2.72,12.81h6.4l-1.36,6.4h19.21Z"></path>
    <path d="M1133.61,195.99h-38.43l1.36-6.4h12.81l12.25-57.64h-6.41l1.36-6.4h6.41l1.36-6.4h6.4l1.36-6.4h6.4l-2.72,12.81h6.4l1.36-6.4h6.41l1.36-6.4h19.21l-1.36,6.4h6.4l-1.36,6.4h12.81l1.36-6.4h6.41l1.36-6.4h19.21l-1.36,6.4h6.4l-1.36,6.4h6.4l-13.61,64.05h12.81l-1.36,6.4h-38.43l1.36-6.4h12.81l12.25-57.64h-6.41l1.36-6.4h-19.21l-1.36,6.4h-6.4l-12.25,57.64h12.81l-1.36,6.4h-38.43l1.36-6.4h12.81l12.25-57.64h-6.41l1.36-6.4h-19.21l-1.36,6.4h-6.4l-12.25,57.64h12.81l-1.36,6.4Z"></path>
    <path d="M1232.4,183.18l2.72-12.81h-6.4l6.81-32.02h6.4l2.72-12.81h6.41l1.36-6.4h12.81l1.36-6.4h25.62l-1.36,6.4h12.81l-2.72,12.81h6.4l-4.08,19.21h-57.64l-4.08,19.21h6.4l-1.36,6.4h6.4l-1.36,6.4h25.62l1.36-6.4h6.41l1.36-6.4h6.4l-2.72,12.81h-6.4l-1.36,6.4h-12.81l-1.36,6.4h-19.21l1.36-6.4h-12.81l1.36-6.4h-6.41ZM1265.23,119.13l-1.36,6.4h-6.4l-2.72,12.81h-6.4l-1.36,6.4h44.83l2.72-12.81h-6.41l1.36-6.4h-6.4l1.36-6.4h-19.21Z"></path>
    <path d="M1341.28,183.18l-1.36,6.4h-6.41l-1.36,6.4h-19.21l1.36-6.4h-6.41l14.97-70.45h-6.4l1.36-6.4h6.4l1.36-6.4h6.41l2.72-12.81h6.4l-4.08,19.21h12.81l-1.36,6.4h-12.81l-13.61,64.05h19.21l1.36-6.4h6.4l-1.36,6.4h-6.4Z"></path>
    <path d="M1402.6,195.99l1.36-6.4h12.81l12.25-57.64h-6.4l1.36-6.4h-25.62l-1.36,6.4h-6.4l-12.25,57.64h12.81l-1.36,6.4h-38.43l1.36-6.4h12.81l19.06-89.66h-6.41l1.36-6.4h6.41l1.36-6.4h6.4l1.36-6.4h6.4l-9.53,44.83h6.4l1.36-6.4h6.41l1.36-6.4h25.62l-1.36,6.4h6.4l-1.36,6.4h6.4l-13.61,64.05h12.81l-1.36,6.4h-38.43Z"></path>
    <path d="M1447.43,195.99l1.36-6.4h12.81l12.25-57.64h-6.41l1.36-6.4h6.41l1.36-6.4h6.4l1.36-6.4h6.4l-16.34,76.85h12.81l-1.36,6.4h-38.43ZM1482.02,93.51l2.72-12.81h12.81l-2.72,12.81h-12.81Z"></path>
    <path d="M1581.93,195.99h-38.43l1.36-6.4h12.81l12.25-57.64h-6.4l1.36-6.4h-25.62l-1.36,6.4h-6.4l-12.25,57.64h12.81l-1.36,6.4h-38.43l1.36-6.4h12.81l12.25-57.64h-6.41l1.36-6.4h6.41l1.36-6.4h6.4l1.36-6.4h6.4l-2.72,12.81h6.4l1.36-6.4h6.41l1.36-6.4h25.62l-1.36,6.4h6.4l-1.36,6.4h6.4l-13.61,64.05h12.81l-1.36,6.4Z"></path>
    <path d="M1597.06,215.2h-6.41l1.36-6.4h-6.4l2.72-12.81h6.4l1.36-6.4h6.41l1.36-6.4h-6.41l2.72-12.81h6.41l2.72-12.81h-6.41l1.36-6.4h-6.4l5.45-25.62h6.4l1.36-6.4h12.81l1.36-6.4h32.02l-1.36,6.4h19.21l-1.36,6.4h-6.4l-5.45,25.62h-6.4l-1.36,6.4h-6.41l-1.36,6.4h-25.62l-1.36,6.4h-6.4l-1.36,6.4h38.43l-1.36,6.4h6.4l-1.36,6.4h6.4l-4.08,19.21h-6.4l-1.36,6.4h-12.81l-1.36,6.4h-38.43l1.36-6.4ZM1623.88,119.13l-1.36,6.4h-6.4l-5.45,25.62h6.4l-1.36,6.4h25.62l1.36-6.4h6.4l5.45-25.62h-6.4l1.36-6.4h-25.62ZM1635.48,215.2l1.36-6.4h6.41l2.72-12.81h-6.41l1.36-6.4h-32.02l-1.36,6.4h-6.4l-2.72,12.81h6.4l-1.36,6.4h32.02Z"></path>
  </g>
</svg>