<?xml version="1.0" standalone="no"?>  <svg version="1.0" xmlns="http://www.w3.org/2000/svg" width="600.000000pt" height="343.000000pt" viewBox="0 0 600.000000 343.000000" preserveAspectRatio="xMidYMid meet"> <g transform="translate(0.000000,343.000000) scale(0.100000,-0.100000)" fill="#ffea00" stroke="none"> <path d="M220 3290 c0 -3 0 -700 0 -1550 l0 -1545 65 -3 65 -3 0 1553 0 1554 -65 -1 c-36 0 -65 -2 -65 -5z"></path> <path d="M534 3291 c-2 -2 -4 -701 -4 -1553 l0 -1548 70 0 70 0 -2 1552 -3 1551 -63 1 c-35 1 -66 -1 -68 -3z"></path> <path d="M850 1743 l0 -1554 65 3 65 3 0 1548 0 1548 -65 3 -65 2 0 -1553z"></path> <path d="M1167 3293 c-1 -1 -1 -699 1 -1552 l2 -1551 65 0 65 0 0 1553 0 1552 -66 0 c-36 0 -66 -1 -67 -2z"></path> <path d="M1490 3291 c0 -4 0 -701 0 -1551 l-1 -1545 66 -3 65 -3 -2 1552 -3 1552 -62 1 c-35 1 -63 0 -63 -3z"></path> <path d="M1804 3291 c-2 -2 -4 -701 -4 -1553 l0 -1548 70 0 70 0 -2 1552 -3 1551 -63 1 c-35 1 -66 -1 -68 -3z"></path> <path d="M2120 1742 l0 -1553 65 3 65 3 0 1549 0 1549 -65 1 -65 2 0 -1554z"></path> <path d="M2440 1743 l0 -1553 65 0 65 0 0 1553 0 1552 -65 0 -65 0 0 -1552z"></path> <path d="M2760 3293 c0 -2 0 -699 0 -1550 l0 -1548 65 -3 65 -3 0 1553 0 1553 -65 0 c-36 0 -65 -1 -65 -2z"></path> <path d="M3075 3291 c-3 -2 -5 -701 -5 -1553 l0 -1548 70 0 70 0 -2 1551 -3 1552 -63 1 c-34 1 -65 0 -67 -3z"></path> <path d="M3390 1743 l0 -1553 65 0 65 0 2 1543 c2 848 2 1547 0 1552 -1 6 -31 10 -67 11 l-65 0 0 -1553z"></path> <path d="M3710 1743 l0 -1553 65 0 65 0 0 1553 0 1553 -65 -1 -65 0 0 -1552z"></path> <path d="M4030 3293 c0 -2 0 -699 0 -1550 l0 -1548 65 -3 65 -3 -2 1553 -3 1553 -62 0 c-35 0 -63 -1 -63 -2z"></path> <path d="M4344 3291 c-2 -2 -4 -701 -4 -1553 l0 -1548 70 0 70 0 -2 1553 -3 1552 -63 0 c-35 1 -65 -1 -68 -4z"></path> <path d="M4665 3291 c-3 -2 -5 -701 -5 -1553 l0 -1548 68 0 67 0 -2 1552 -2 1553 -61 0 c-33 1 -63 -1 -65 -4z"></path> <path d="M4980 1743 l0 -1553 65 0 65 0 0 1553 0 1554 -65 -1 -65 -1 0 -1552z"></path> <path d="M5300 3290 c0 -3 0 -700 0 -1550 l0 -1545 65 -3 65 -3 0 1553 0 1553 -65 0 c-36 0 -65 -2 -65 -5z"></path> <path d="M5615 3291 c-3 -2 -5 -701 -5 -1553 l0 -1548 70 0 70 0 -2 1552 -3 1552 -63 1 c-34 1 -65 -1 -67 -4z"></path> </g> </svg>