<?xml version="1.0" standalone="no"?>  <svg version="1.0" xmlns="http://www.w3.org/2000/svg" width="600.000000pt" height="343.000000pt" viewBox="0 0 600.000000 343.000000" preserveAspectRatio="xMidYMid meet"> <g transform="translate(0.000000,343.000000) scale(0.100000,-0.100000)" fill="#ffea00" stroke="none"> <path d="M2402 2372 l-61 -67 -1 -610 0 -610 65 65 65 65 0 609 c0 335 -1 610 -3 612 -2 2 -31 -27 -65 -64z"></path> <path d="M5163 2371 l-63 -69 0 -606 c0 -333 2 -606 4 -606 2 0 34 30 70 68 l66 67 0 608 c0 334 -3 607 -7 607 -5 -1 -36 -32 -70 -69z"></path> <path d="M533 2368 l-63 -63 -2 -683 c-2 -375 -1 -682 2 -682 3 0 34 28 68 63 l62 63 -2 682 -3 683 -62 -63z"></path> <path d="M1038 2363 l-68 -69 0 -267 c0 -147 4 -267 8 -267 4 0 36 28 70 63 l62 63 -2 272 -3 273 -67 -68z"></path> <path d="M2682 2365 l-62 -65 0 -684 0 -684 64 67 65 66 3 683 c2 375 1 682 -2 682 -3 0 -33 -29 -68 -65z"></path> <path d="M3203 2351 l-62 -66 -1 -270 0 -270 65 65 65 66 -2 270 -3 271 -62 -66z"></path> <path d="M5678 2353 l-68 -69 0 -267 c0 -147 4 -267 8 -267 4 0 36 28 70 63 l62 63 -2 272 -3 273 -67 -68z"></path> <path d="M3943 2230 l-62 -66 -3 -612 c-2 -337 -1 -612 2 -612 3 0 34 28 68 63 l62 63 -2 614 -3 615 -62 -65z"></path> <path d="M793 2228 l-63 -64 0 -614 0 -615 65 65 65 65 -2 613 -3 613 -62 -63z"></path> <path d="M1432 2227 l-64 -64 -1 -617 -2 -616 68 68 67 67 -2 613 -3 613 -63 -64z"></path> <path d="M2153 2228 l-62 -63 -3 -613 c-2 -336 -1 -612 2 -612 3 0 34 28 68 63 l62 63 -2 612 -3 613 -62 -63z"></path> <path d="M3472 2227 l-62 -63 0 -616 0 -616 65 67 65 68 2 611 c2 337 1 612 -2 612 -3 0 -34 -28 -68 -63z"></path> <path d="M4543 2228 l-63 -63 0 -609 c0 -335 1 -610 3 -612 2 -2 31 25 65 60 l62 63 -2 612 -3 612 -62 -63z"></path> <path d="M4892 2227 l-62 -63 0 -607 c0 -334 4 -607 8 -607 4 0 36 28 70 63 l62 63 0 607 c0 334 -4 607 -8 607 -4 0 -36 -28 -70 -63z"></path> <path d="M2953 2211 l-63 -67 0 -608 c0 -334 4 -606 8 -604 5 2 36 33 70 69 l62 67 0 606 c0 333 -3 605 -7 605 -5 -1 -36 -32 -70 -68z"></path> <path d="M5433 2218 l-63 -64 0 -614 0 -615 65 65 65 65 -2 613 -3 613 -62 -63z"></path> <path d="M283 2179 l-63 -65 -2 -587 c-2 -323 -1 -587 2 -587 3 0 34 28 68 63 l62 63 -2 588 -3 589 -62 -64z"></path> <path d="M1038 1733 l-68 -69 0 -362 c0 -199 4 -362 8 -362 5 0 36 29 70 64 l62 64 -2 366 -3 367 -67 -68z"></path> <path d="M3203 1728 l-63 -64 0 -369 0 -370 65 65 65 65 -2 368 -3 368 -62 -63z"></path> <path d="M5678 1723 l-67 -68 -1 -362 c0 -200 3 -363 8 -363 5 0 36 29 70 65 l62 65 -2 365 -3 366 -67 -68z"></path> <path d="M4193 1469 l-63 -66 0 -159 0 -159 65 65 66 66 -3 159 -3 160 -62 -66z"></path> <path d="M2590 905 c0 -3 2 -5 5 -5 3 0 5 2 5 5 0 3 -2 5 -5 5 -3 0 -5 -2 -5 -5z"></path> </g> </svg>