<?xml version="1.0" standalone="no"?>  <svg version="1.0" xmlns="http://www.w3.org/2000/svg" width="600.000000pt" height="343.000000pt" viewBox="0 0 600.000000 343.000000" preserveAspectRatio="xMidYMid meet"> <g transform="translate(0.000000,343.000000) scale(0.100000,-0.100000)" fill="#ffea00" stroke="none"> <path d="M2402 2372 l-61 -67 -1 -525 0 -526 -60 -59 -60 -59 0 579 0 579 -65 -64 -65 -64 -2 -613 c-2 -337 -1 -613 2 -613 2 0 28 24 58 52 l53 53 -2 -50 c-1 -27 -1 -54 0 -60 0 -5 62 53 136 130 l134 140 1 614 c0 337 -1 615 -3 617 -2 2 -31 -27 -65 -64z"></path> <path d="M4468 2297 l-138 -142 0 -87 c0 -49 3 -88 6 -88 3 0 37 33 74 73 l69 72 1 -595 0 -595 65 66 65 66 -2 686 -3 686 -137 -142z"></path> <path d="M5164 2372 l-61 -66 4 -520 5 -521 -74 -73 -74 -72 4 585 c3 342 1 585 -5 585 -5 0 -37 -28 -71 -63 l-62 -63 0 -607 c0 -334 3 -607 7 -607 4 0 33 26 65 57 l58 57 0 -69 0 -70 140 140 140 140 0 617 c0 340 -3 618 -7 617 -5 0 -36 -30 -69 -67z"></path> <path d="M533 2368 l-63 -64 0 -275 0 -275 -60 -59 c-33 -33 -60 -55 -60 -50 0 6 0 142 0 304 1 332 9 311 -81 215 l-49 -50 -2 -587 c-2 -323 -1 -587 2 -587 3 0 34 28 68 63 l62 63 0 195 0 195 60 59 61 60 -3 -318 c-2 -174 -1 -317 2 -317 3 0 34 28 68 63 l62 63 -2 682 -3 683 -62 -63z"></path> <path d="M863 2297 l-133 -133 0 -614 0 -614 65 64 65 64 0 521 0 521 53 52 c29 29 56 52 60 52 4 0 4 -101 0 -225 -4 -138 -3 -225 3 -225 5 0 38 28 72 63 l62 63 0 274 0 275 -51 -52 c-62 -65 -61 -65 -53 -3 4 28 3 50 -2 50 -5 0 -69 -60 -141 -133z"></path> <path d="M1502 2297 l-133 -133 -2 -617 -2 -617 67 67 68 67 0 520 0 521 70 70 71 71 -3 92 -3 92 -133 -133z"></path> <path d="M2682 2365 l-62 -65 0 -682 0 -683 65 65 64 65 3 683 c2 375 1 682 -2 682 -3 0 -33 -29 -68 -65z"></path> <path d="M3738 2353 l-78 -78 0 -95 0 -95 80 81 81 80 -3 92 -3 93 -77 -78z"></path> <path d="M3028 2283 l-138 -138 0 -608 c0 -335 4 -607 8 -605 5 2 36 33 70 69 l62 67 0 518 -1 518 56 55 55 56 0 -235 0 -234 65 64 65 64 0 274 0 274 -47 -53 -48 -53 -5 52 -5 52 -137 -137z"></path> <path d="M5502 2287 l-132 -132 0 -615 0 -614 65 64 65 64 0 521 0 521 53 52 c29 29 56 52 60 52 4 0 4 -101 0 -225 -4 -138 -3 -225 3 -225 5 0 38 28 72 63 l62 63 0 274 0 274 -55 -54 -56 -55 7 53 c3 28 2 52 -3 52 -4 0 -68 -60 -141 -133z"></path> <path d="M3943 2230 l-63 -66 -2 -612 c-2 -337 -1 -612 2 -612 3 0 34 28 68 63 l62 63 -2 614 -3 615 -62 -65z"></path> <path d="M3472 2226 l-62 -64 0 -613 0 -613 55 54 55 54 0 -53 0 -54 135 139 135 139 0 90 0 90 -125 -125 -126 -125 3 573 c2 314 0 572 -3 572 -3 0 -34 -29 -67 -64z"></path> <path d="M1038 1733 l-68 -69 0 -362 c0 -199 4 -362 8 -362 5 0 36 29 70 64 l62 64 -2 366 -3 367 -67 -68z"></path> <path d="M4188 1737 l-56 -63 -4 -367 c-1 -202 -1 -367 2 -367 3 0 34 28 68 63 l62 63 0 367 c0 202 -3 367 -7 366 -5 0 -33 -28 -65 -62z"></path> <path d="M3203 1728 l-63 -64 0 -369 0 -370 65 65 65 65 -2 368 -3 368 -62 -63z"></path> <path d="M5678 1723 l-67 -68 -1 -362 c0 -200 3 -363 8 -363 5 0 36 29 70 65 l62 65 -2 365 -3 366 -67 -68z"></path> <path d="M2590 905 c0 -3 2 -5 5 -5 3 0 5 2 5 5 0 3 -2 5 -5 5 -3 0 -5 -2 -5 -5z"></path> </g> </svg>