<?xml version="1.0" standalone="no"?>  <svg version="1.0" xmlns="http://www.w3.org/2000/svg" width="600.000000pt" height="343.000000pt" viewBox="0 0 600.000000 343.000000" preserveAspectRatio="xMidYMid meet"> <g transform="translate(0.000000,343.000000) scale(0.100000,-0.100000)" fill="#ffea00" stroke="none"> <path d="M353 2300 l-132 -136 -3 -612 c-2 -336 -1 -612 2 -612 3 0 34 28 68 63 l62 63 0 195 0 195 60 59 61 60 -3 -318 c-2 -174 -1 -317 2 -317 3 0 34 28 68 63 l62 63 0 684 0 684 -56 -54 -56 -55 4 53 c3 29 2 54 -1 55 -3 2 -65 -58 -138 -133z m60 -602 c-31 -32 -59 -56 -61 -54 -2 2 -3 109 -2 238 l1 233 57 58 57 58 3 -238 2 -237 -57 -58z"></path> <path d="M2413 2381 l-52 -56 -1 55 0 55 -135 -135 -135 -134 -2 -613 c-2 -337 -1 -613 2 -613 2 0 28 24 58 52 l53 53 -2 -50 c-1 -27 -1 -54 0 -60 0 -5 62 53 136 130 l135 140 -3 616 -2 617 -52 -57z m-133 -1186 l-60 -60 0 483 0 483 58 65 57 64 3 -487 2 -488 -60 -60z"></path> <path d="M4968 2303 l-138 -138 0 -608 c0 -334 3 -607 7 -607 4 0 33 26 65 57 l58 57 0 -69 0 -70 140 140 140 140 0 620 0 619 -64 -63 -65 -64 -3 62 -3 61 -137 -137z m69 -1110 l-72 -73 3 497 2 497 68 70 67 71 3 -495 2 -495 -73 -72z"></path> <path d="M863 2297 l-133 -133 0 -614 0 -614 65 64 65 64 0 240 0 239 55 57 c30 32 56 56 58 53 3 -2 2 -163 -1 -358 -3 -227 -1 -355 5 -355 5 0 37 29 71 64 l62 64 0 368 0 368 -35 -34 -35 -34 0 40 c0 33 6 46 35 74 l35 34 0 275 0 276 -51 -52 c-62 -65 -61 -65 -53 -3 4 28 3 50 -2 50 -5 0 -69 -60 -141 -133z m113 -274 l-5 -187 -55 -55 -56 -56 0 190 0 189 52 53 c29 29 56 53 60 53 5 0 6 -84 4 -187z"></path> <path d="M1348 2293 l-138 -138 0 -88 c0 -48 4 -87 9 -87 6 0 38 32 72 70 35 39 67 70 72 70 6 0 8 -229 5 -596 l-5 -595 69 68 68 67 0 521 0 521 70 69 70 69 0 96 -1 95 -74 -79 -74 -78 -3 76 -3 76 -137 -137z"></path> <path d="M2682 2365 l-62 -65 0 -682 0 -683 65 65 64 65 3 683 c2 375 1 682 -2 682 -3 0 -33 -29 -68 -65z"></path> <path d="M3542 2295 l-132 -135 0 -612 0 -612 55 54 55 54 0 -53 0 -54 135 139 135 139 0 90 0 90 -125 -125 -125 -125 0 178 0 178 75 72 75 73 0 94 0 94 -75 -74 -75 -74 0 210 0 210 60 59 60 59 0 -69 0 -70 80 80 80 80 0 94 0 95 -65 -64 -65 -64 0 62 c0 34 -4 62 -8 62 -4 0 -67 -61 -140 -135z"></path> <path d="M4012 2297 l-132 -132 -2 -613 c-2 -336 -1 -612 2 -612 3 0 26 23 52 52 l47 53 1 -52 c0 -29 1 -53 3 -53 2 0 65 62 140 138 l137 137 0 163 0 162 -65 -67 -64 -68 -1 -70 0 -71 -60 -59 -60 -59 0 480 0 480 45 44 45 44 0 -54 0 -55 80 80 80 80 0 95 -1 95 -47 -53 c-57 -64 -64 -65 -61 -7 2 24 1 47 -2 49 -3 3 -64 -54 -137 -127z"></path> <path d="M4463 2291 l-133 -138 0 -86 c0 -48 2 -87 5 -87 3 0 36 33 75 73 l70 72 0 -585 c0 -322 0 -589 0 -595 0 -5 29 20 65 55 l65 65 0 530 0 531 60 59 60 59 0 95 0 95 -60 -59 -60 -59 0 57 c0 31 -3 57 -7 56 -5 -1 -68 -63 -140 -138z"></path> <path d="M3028 2283 l-137 -138 0 -608 c0 -335 3 -607 8 -605 4 2 36 33 70 70 l62 66 -1 238 -1 237 55 56 56 56 0 -365 0 -364 65 64 65 64 0 371 -1 370 -29 -33 c-32 -35 -33 -34 -30 18 1 23 11 45 31 65 l29 31 0 273 0 273 -47 -53 -48 -53 -5 52 -5 52 -137 -137z m58 -503 c-30 -32 -57 -56 -59 -53 -3 2 -3 88 0 191 l4 187 52 53 52 53 3 -187 2 -187 -54 -57z"></path> <path d="M5502 2287 l-132 -132 0 -615 0 -614 65 64 65 64 0 241 0 241 53 52 c29 29 55 52 59 52 3 0 3 -160 0 -355 -3 -225 -1 -355 5 -355 5 0 37 29 71 65 l62 64 0 368 0 367 -35 -34 -35 -34 0 40 c0 33 6 46 35 74 l35 34 0 275 0 275 -55 -54 -56 -55 7 53 c3 28 2 52 -3 52 -4 0 -68 -60 -141 -133z m113 -274 l-4 -187 -56 -55 -55 -56 0 190 0 189 52 53 c29 29 56 53 60 53 4 0 6 -84 3 -187z"></path> <path d="M2590 905 c0 -3 2 -5 5 -5 3 0 5 2 5 5 0 3 -2 5 -5 5 -3 0 -5 -2 -5 -5z"></path> </g> </svg>