<?xml version="1.0"?>  <svg version="1.0" xmlns="http://www.w3.org/2000/svg" width="600.000000pt" height="343.000000pt" viewBox="0 0 600.000000 343.000000" preserveAspectRatio="xMidYMid meet"> <g transform="translate(0.000000,343.000000) scale(0.100000,-0.100000)" fill="#ffea00" stroke="none"> <path d="M220 3293 c-1 -4 -1 -703 -1 -1553 l0 -1545 66 -3 65 -3 -2 1553 -3 1553 -62 3 c-35 2 -63 -1 -63 -5z"></path> <path d="M470 1745 l0 -1555 65 0 65 0 0 1555 0 1555 -65 0 -65 0 0 -1555z"></path> <path d="M730 1745 l0 -1555 65 0 65 0 0 1555 0 1555 -65 0 -65 0 0 -1555z"></path> <path d="M977 3294 c-4 -4 -7 -704 -7 -1556 l0 -1549 65 3 66 3 0 1550 1 1550 -59 3 c-32 2 -62 0 -66 -4z"></path> <path d="M1369 3296 c-2 -2 -3 -702 -1 -1555 l2 -1551 65 0 65 0 0 1555 0 1555 -63 0 c-35 0 -66 -2 -68 -4z"></path> <path d="M2090 3293 c-1 -4 -1 -703 -1 -1553 l0 -1545 66 -3 65 -3 -2 1553 -3 1553 -62 3 c-35 2 -63 -1 -63 -5z"></path> <path d="M2340 1745 l0 -1555 65 0 65 0 0 1555 0 1555 -65 0 -65 0 0 -1555z"></path> <path d="M2620 1745 l0 -1556 65 3 65 3 0 1550 0 1550 -65 3 -65 3 0 -1556z"></path> <path d="M2897 3294 c-4 -4 -7 -704 -7 -1556 l0 -1549 65 3 65 3 0 1550 0 1550 -58 3 c-32 2 -61 0 -65 -4z"></path> <path d="M3140 3298 c0 -2 0 -700 0 -1553 l0 -1550 65 -3 65 -3 0 1556 0 1555 -65 0 c-36 0 -65 -1 -65 -2z"></path> <path d="M3410 1745 l0 -1555 65 0 65 0 0 1555 0 1555 -65 0 -65 0 0 -1555z"></path> <path d="M3879 3296 c-2 -2 -3 -702 -1 -1555 l2 -1551 65 0 65 0 0 1555 0 1555 -63 0 c-35 0 -66 -2 -68 -4z"></path> <path d="M4130 1745 l0 -1555 65 0 65 0 0 1555 0 1555 -65 0 -65 0 0 -1555z"></path> <path d="M4480 1745 l0 -1555 65 0 65 0 0 1555 0 1555 -65 0 -65 0 0 -1555z"></path> <path d="M4830 1745 l0 -1556 65 3 65 3 0 1550 0 1550 -65 3 -65 3 0 -1556z"></path> <path d="M5100 1745 l0 -1556 65 3 65 3 0 1550 0 1550 -65 3 -65 3 0 -1556z"></path> <path d="M5370 1745 l0 -1555 65 0 65 0 0 1555 0 1555 -65 0 -65 0 0 -1555z"></path> <path d="M5615 3288 c-3 -7 -4 -706 -3 -1553 l3 -1540 68 -3 67 -3 -2 1553 -3 1553 -63 3 c-44 2 -64 -1 -67 -10z"></path> </g> </svg>