<?xml version="1.0"?>  <svg version="1.0" xmlns="http://www.w3.org/2000/svg" width="600.000000pt" height="343.000000pt" viewBox="0 0 600.000000 343.000000" preserveAspectRatio="xMidYMid meet"> <g transform="translate(0.000000,343.000000) scale(0.100000,-0.100000)" fill="#ffea00" stroke="none"> <path d="M273 2383 l-63 -67 0 -685 0 -686 65 65 64 65 3 688 c2 378 1 687 -2 687 -3 0 -33 -30 -67 -67z"></path> <path d="M533 2388 l-62 -63 -3 -688 c-2 -378 -1 -687 2 -687 3 0 34 28 68 63 l62 63 -2 687 -3 688 -62 -63z"></path> <path d="M791 2383 l-61 -67 0 -686 0 -685 65 65 64 65 3 688 c2 378 0 687 -4 687 -3 0 -34 -30 -67 -67z"></path> <path d="M1038 2383 l-68 -69 0 -682 c0 -396 4 -682 9 -682 5 0 36 31 70 69 l61 69 -2 681 -3 682 -67 -68z"></path> <path d="M1434 2388 l-59 -61 -5 -689 c-3 -378 -3 -688 0 -688 3 0 33 28 67 62 l62 63 3 688 c2 378 0 687 -3 687 -3 0 -32 -28 -65 -62z"></path> <path d="M2153 2388 l-62 -63 -3 -688 c-2 -378 -1 -687 2 -687 3 0 34 28 68 63 l62 63 -2 687 -3 688 -62 -63z"></path> <path d="M2403 2381 l-63 -70 0 -683 0 -683 65 65 65 65 2 688 c2 378 1 687 -2 687 -3 0 -33 -31 -67 -69z"></path> <path d="M2686 2383 l-66 -68 0 -682 c0 -376 2 -683 4 -683 2 0 31 28 65 63 l60 63 3 687 c2 378 2 687 2 687 -1 0 -31 -30 -68 -67z"></path> <path d="M2958 2383 l-68 -69 0 -682 c0 -375 4 -682 9 -682 4 0 36 31 70 69 l61 69 -2 681 -3 682 -67 -68z"></path> <path d="M3201 2383 l-61 -67 0 -685 0 -686 65 65 64 65 3 688 c2 378 0 687 -3 687 -4 0 -34 -30 -68 -67z"></path> <path d="M3471 2383 l-61 -66 0 -686 0 -686 65 65 65 65 2 688 c2 378 0 687 -3 687 -3 0 -34 -30 -68 -67z"></path> <path d="M3942 2387 l-61 -62 -3 -688 c-2 -378 -1 -687 2 -687 3 0 33 28 68 63 l62 62 0 684 c1 376 -1 685 -3 687 -2 2 -31 -25 -65 -59z"></path> <path d="M4193 2388 l-62 -63 -3 -688 c-2 -378 -1 -687 2 -687 3 0 34 28 68 63 l62 63 -2 687 -3 688 -62 -63z"></path> <path d="M4543 2388 l-62 -63 -3 -688 c-2 -378 -1 -687 2 -687 3 0 34 28 68 63 l62 63 -2 687 -3 688 -62 -63z"></path> <path d="M4893 2380 l-63 -67 0 -682 c0 -374 2 -681 4 -681 2 0 34 30 70 67 l66 68 0 683 c0 375 -3 682 -7 681 -5 0 -36 -31 -70 -69z"></path> <path d="M5167 2382 l-67 -68 0 -682 c0 -375 3 -682 8 -682 4 0 35 30 69 67 l63 68 0 683 c0 375 -1 682 -3 682 -1 0 -33 -30 -70 -68z"></path> <path d="M5433 2380 l-63 -67 0 -682 c0 -374 2 -681 4 -681 2 0 34 30 70 67 l66 68 0 683 c0 375 -3 682 -7 681 -5 0 -36 -31 -70 -69z"></path> <path d="M5682 2387 l-63 -63 -2 -687 c-1 -378 0 -687 3 -687 3 0 34 28 68 63 l62 63 -2 687 -3 688 -63 -64z"></path> </g> </svg>