<?xml version="1.0"?>  <svg version="1.0" xmlns="http://www.w3.org/2000/svg" width="600.000000pt" height="343.000000pt" viewBox="0 0 600.000000 343.000000" preserveAspectRatio="xMidYMid meet"> <g transform="translate(0.000000,343.000000) scale(0.100000,-0.100000)" fill="#ffea00" stroke="none"> <path d="M215 1695 l0 -755 68 0 67 0 0 755 0 755 -67 0 -68 0 0 -755z"></path> <path d="M470 1695 l0 -755 65 0 65 0 0 755 0 755 -65 0 -65 0 0 -755z"></path> <path d="M730 1695 l0 -755 65 0 65 0 0 755 0 755 -65 0 -65 0 0 -755z"></path> <path d="M970 1695 l0 -755 68 0 67 0 0 755 0 755 -67 0 -68 0 0 -755z"></path> <path d="M1370 1695 l0 -755 65 0 65 0 0 755 0 755 -65 0 -65 0 0 -755z"></path> <path d="M2085 1695 l0 -755 68 0 67 0 0 755 0 755 -67 0 -68 0 0 -755z"></path> <path d="M2340 1695 l0 -755 65 0 65 0 0 755 0 755 -65 0 -65 0 0 -755z"></path> <path d="M2620 1695 l0 -755 68 0 67 0 0 755 0 755 -67 0 -68 0 0 -755z"></path> <path d="M2890 1695 l0 -755 68 0 67 0 -2 752 -2 753 -66 3 -65 3 0 -756z"></path> <path d="M3140 2443 c0 -5 -2 -344 -3 -755 l-2 -748 68 0 67 0 0 755 0 755 -65 0 c-36 0 -65 -3 -65 -7z"></path> <path d="M3410 1695 l0 -755 65 0 65 0 0 755 0 755 -65 0 -65 0 0 -755z"></path> <path d="M3878 1695 l-3 -755 68 0 67 0 0 755 0 755 -65 0 -65 0 -2 -755z"></path> <path d="M4130 1695 l0 -755 65 0 65 0 0 755 0 755 -65 0 -65 0 0 -755z"></path> <path d="M4480 1695 l0 -755 65 0 65 0 0 755 0 755 -65 0 -65 0 0 -755z"></path> <path d="M4830 1695 l0 -756 65 3 66 3 0 750 0 750 -66 3 -65 3 0 -756z"></path> <path d="M5100 1695 l0 -755 68 0 67 0 0 755 0 755 -67 0 -68 0 0 -755z"></path> <path d="M5370 1695 l0 -755 65 0 65 0 0 755 0 755 -65 0 -65 0 0 -755z"></path> <path d="M5610 1695 l0 -755 70 0 70 0 0 755 0 755 -70 0 -70 0 0 -755z"></path> <path d="M3580 875 c0 -3 2 -5 5 -5 3 0 5 2 5 5 0 3 -2 5 -5 5 -3 0 -5 -2 -5 -5z"></path> </g> </svg>