<?xml version="1.0" standalone="no"?>  <svg version="1.0" xmlns="http://www.w3.org/2000/svg" width="600.000000pt" height="343.000000pt" viewBox="0 0 600.000000 343.000000" preserveAspectRatio="xMidYMid meet"> <g transform="translate(0.000000,343.000000) scale(0.100000,-0.100000)" fill="#ffea00" stroke="none"> <path d="M220 3290 c0 -3 0 -700 0 -1550 l0 -1545 65 -3 65 -3 0 1553 0 1553 -65 0 c-36 0 -65 -2 -65 -5z"></path> <path d="M470 1743 l0 -1553 65 0 65 0 0 1553 0 1552 -65 0 -65 0 0 -1552z"></path> <path d="M728 3295 c-2 -2 -2 -701 0 -1554 l2 -1551 65 0 65 0 0 1553 0 1552 -64 1 c-36 1 -66 0 -68 -1z"></path> <path d="M974 3291 c-2 -2 -4 -701 -4 -1553 l0 -1548 70 0 70 0 -2 1552 -3 1553 -63 0 c-35 0 -66 -2 -68 -4z"></path> <path d="M1370 3294 c0 -2 0 -700 0 -1551 l0 -1548 65 -3 65 -3 0 1554 0 1553 -65 1 c-36 1 -65 0 -65 -3z"></path> <path d="M2090 3292 c0 -4 -1 -703 -3 -1554 l-2 -1548 68 0 67 0 -2 1552 -3 1551 -62 3 c-35 2 -63 0 -63 -4z"></path> <path d="M2340 1743 l0 -1553 65 0 65 0 0 1545 c0 850 0 1548 0 1553 0 4 -29 7 -65 7 l-65 0 0 -1552z"></path> <path d="M2624 3291 c-2 -2 -4 -701 -4 -1553 l0 -1549 65 3 65 3 0 1550 0 1550 -61 0 c-33 0 -62 -2 -65 -4z"></path> <path d="M2894 3291 c-2 -2 -4 -701 -4 -1553 l0 -1549 65 3 65 3 3 1547 2 1547 -63 3 c-35 2 -66 1 -68 -1z"></path> <path d="M3140 3293 c0 -2 0 -699 0 -1550 l0 -1548 65 -3 65 -3 0 1553 0 1553 -65 0 c-36 0 -65 -1 -65 -2z"></path> <path d="M3410 1743 l0 -1553 65 0 65 0 0 1553 0 1552 -65 0 -65 0 0 -1552z"></path> <path d="M3880 1743 l0 -1553 65 0 65 0 0 1553 0 1552 -65 0 -65 0 0 -1552z"></path> <path d="M4130 1743 l0 -1553 65 0 65 0 0 1553 0 1552 -65 0 -65 0 0 -1552z"></path> <path d="M4480 1743 l0 -1553 65 0 65 0 0 1553 0 1552 -65 0 -65 1 0 -1553z"></path> <path d="M4834 3291 c-2 -2 -4 -701 -4 -1553 l0 -1549 65 3 65 3 0 1548 0 1549 -61 1 c-33 1 -63 0 -65 -2z"></path> <path d="M5104 3291 c-2 -2 -4 -701 -4 -1553 l0 -1548 68 0 67 0 -2 1553 -2 1552 -61 0 c-34 0 -63 -2 -66 -4z"></path> <path d="M5370 1743 l0 -1553 65 0 65 0 0 1553 0 1552 -65 0 -65 0 0 -1552z"></path> <path d="M5614 3291 c-2 -2 -4 -701 -4 -1553 l0 -1548 70 0 70 0 -2 1552 -3 1552 -63 0 c-35 1 -66 -1 -68 -3z"></path> </g> </svg>