<?xml version="1.0"?>

<svg version="1.0" xmlns="http://www.w3.org/2000/svg" width="600.000000pt" height="343.000000pt" viewBox="0 0 600.000000 343.000000" preserveAspectRatio="xMidYMid meet">
<g transform="translate(0.000000,343.000000) scale(0.100000,-0.100000)" fill="#000000" stroke="none">
<path d="M1350 3155 c0 -73 1 -75 25 -75 16 0 25 6 25 15 0 8 7 15 15 15 8 0&#xA;15 9 15 20 0 18 7 20 75 20 l75 0 0 -295 0 -295 -40 0 c-33 0 -40 -3 -40 -20&#xA;0 -19 7 -20 115 -20 108 0 115 1 115 20 0 16 -7 20 -35 20 l-35 0 0 295 0 295&#xA;70 0 c63 0 70 -2 70 -20 0 -13 7 -20 20 -20 11 0 20 -7 20 -15 0 -8 9 -15 20&#xA;-15 18 0 20 7 20 75 0 68 -2 75 -20 75 -13 0 -20 -7 -20 -20 0 -19 -7 -20&#xA;-220 -20 -213 0 -220 1 -220 20 0 15 -7 20 -25 20 -24 0 -25 -2 -25 -75z"></path>
<path d="M200 3170 c0 -17 7 -20 40 -20 l40 0 0 -295 0 -295 -40 0 c-33 0 -40&#xA;-3 -40 -20 0 -19 7 -20 230 -20 189 0 230 2 230 14 0 7 9 16 20 19 18 5 20 14&#xA;20 81 0 74 -1 76 -25 76 -22 0 -25 -4 -25 -39 0 -31 -4 -40 -21 -44 -12 -3&#xA;-18 -10 -14 -16 3 -7 -2 -11 -14 -11 -14 0 -21 -6 -21 -20 0 -19 -7 -20 -110&#xA;-20 l-110 0 0 294 0 295 37 3 c27 2 39 8 41 21 3 15 -8 17 -117 17 -114 0&#xA;-121 -1 -121 -20z"></path>
<path d="M820 3170 c0 -16 7 -20 35 -20 l35 0 0 -295 0 -295 -35 0 c-28 0 -35&#xA;-4 -35 -20 0 -19 7 -20 205 -20 176 0 205 2 205 15 0 8 9 15 20 15 18 0 20 7&#xA;20 60 0 53 -2 60 -20 60 -13 0 -20 -7 -20 -20 0 -13 -7 -20 -20 -20 -11 0 -20&#xA;-7 -20 -15 0 -8 -7 -15 -16 -15 -9 0 -18 -9 -21 -20 -5 -18 -14 -20 -94 -20&#xA;l-89 0 0 145 0 145 75 0 c60 0 75 -3 75 -15 0 -8 7 -15 15 -15 8 0 15 -9 15&#xA;-20 0 -15 7 -20 25 -20 25 0 25 0 25 95 0 95 0 95 -25 95 -18 0 -25 -5 -25&#xA;-20 0 -11 -6 -20 -14 -20 -7 0 -16 -9 -19 -20 -5 -18 -14 -20 -76 -20 l-71 0&#xA;0 130 0 130 90 0 c76 0 90 -3 90 -16 0 -9 9 -18 20 -21 11 -3 20 -12 20 -19 0&#xA;-8 9 -14 20 -14 13 0 20 -7 20 -20 0 -13 7 -20 20 -20 18 0 20 7 20 60 0 53&#xA;-2 60 -20 60 -11 0 -20 7 -20 15 0 13 -29 15 -205 15 -198 0 -205 -1 -205 -20z"></path>
<path d="M2000 3154 c0 -28 5 -37 21 -41 25 -7 24 -68 -1 -68 -8 0 -16 -10&#xA;-18 -22 -3 -19 1 -23 22 -23 19 0 26 5 26 20 0 11 7 20 15 20 12 0 15 15 15&#xA;75 l0 75 -40 0 c-39 0 -40 -1 -40 -36z"></path>
<path d="M2320 3175 c0 -8 -9 -15 -20 -15 -13 0 -20 -7 -20 -20 0 -13 -7 -20&#xA;-20 -20 -13 0 -20 -7 -20 -20 0 -13 -7 -20 -20 -20 -17 0 -19 -6 -16 -57 3&#xA;-47 7 -57 20 -55 13 2 16 -6 16 -38 l0 -40 40 0 c33 0 40 -3 40 -20 0 -16 7&#xA;-20 35 -20 24 0 35 -5 35 -15 0 -11 11 -15 40 -15 33 0 40 -3 40 -20 0 -11 6&#xA;-20 14 -20 7 0 16 -9 19 -20 3 -11 12 -20 21 -20 27 0 23 -136 -4 -143 -11 -3&#xA;-20 -12 -20 -21 0 -13 -14 -16 -90 -16 -83 0 -90 1 -90 20 0 11 -7 20 -15 20&#xA;-8 0 -15 7 -15 15 0 8 -9 15 -20 15 -13 0 -20 7 -20 20 0 15 -7 20 -25 20 -35&#xA;0 -39 -108 -5 -117 11 -3 20 -12 20 -19 0 -11 27 -14 135 -14 108 0 135 3 135&#xA;14 0 7 9 16 20 19 11 3 20 12 20 21 0 9 7 16 15 16 8 0 15 9 15 20 0 13 7 20&#xA;20 20 18 0 20 7 20 75 0 68 -2 75 -20 75 -13 0 -20 7 -20 20 0 11 -6 20 -14&#xA;20 -7 0 -16 9 -19 20 -3 11 -12 20 -20 20 -8 0 -17 9 -20 19 -4 16 -11 19 -37&#xA;15 -26 -5 -32 -2 -37 15 -4 16 -13 21 -39 21 -27 0 -34 4 -34 20 0 17 -7 20&#xA;-40 20 l-40 0 0 54 c0 64 7 86 26 86 8 0 14 9 14 20 0 18 7 20 75 20 68 0 75&#xA;-2 75 -20 0 -11 7 -20 15 -20 8 0 15 -7 15 -15 0 -8 9 -15 20 -15 13 0 20 -7&#xA;20 -20 0 -13 7 -20 20 -20 18 0 20 7 20 60 0 47 -3 60 -15 60 -8 0 -15 7 -15&#xA;15 0 12 -19 15 -115 15 -96 0 -115 -3 -115 -15z"></path>
<path d="M390 2100 c0 -16 -7 -20 -35 -20 -25 0 -35 -4 -35 -16 0 -9 -9 -18&#xA;-20 -21 -11 -3 -20 -12 -20 -19 0 -8 -9 -14 -20 -14 -17 0 -20 -7 -20 -40 0&#xA;-31 -4 -40 -17 -40 -16 0 -18 -14 -18 -150 0 -136 2 -150 18 -150 10 0 17 -8&#xA;17 -20 0 -13 7 -20 20 -20 16 0 20 -7 20 -35 0 -28 4 -35 20 -35 13 0 20 -7&#xA;20 -20 0 -16 7 -20 35 -20 28 0 35 -4 35 -20 0 -19 7 -20 115 -20 108 0 115 1&#xA;115 20 0 13 7 20 20 20 13 0 20 7 20 20 0 12 7 20 18 20 15 0 17 11 14 110 -4&#xA;106 -3 110 17 110 14 0 21 6 21 20 0 19 -7 20 -95 20 -88 0 -95 -1 -95 -20 0&#xA;-17 7 -20 40 -20 l40 0 0 -110 c0 -103 -1 -110 -20 -110 -13 0 -20 -7 -20 -20&#xA;0 -19 -7 -20 -90 -20 -83 0 -90 1 -90 20 0 13 -7 20 -20 20 -16 0 -20 7 -20&#xA;36 0 27 -5 37 -20 41 -11 3 -20 12 -20 19 0 8 -9 14 -20 14 -19 0 -20 7 -20&#xA;146 0 137 1 146 20 151 15 4 20 14 20 39 0 27 4 34 20 34 13 0 20 7 20 20 0&#xA;13 7 20 20 20 13 0 20 7 20 20 0 19 7 20 90 20 83 0 90 -1 90 -20 0 -13 7 -20&#xA;20 -20 13 0 20 -7 20 -20 0 -11 6 -20 14 -20 7 0 16 -9 19 -21 4 -13 12 -20&#xA;24 -17 29 5 33 118 3 118 -13 0 -20 7 -20 20 0 19 -7 20 -135 20 -128 0 -135&#xA;-1 -135 -20z"></path>
<path d="M1040 2100 c0 -16 -7 -20 -35 -20 -25 0 -35 -4 -35 -16 0 -9 -9 -18&#xA;-20 -21 -11 -3 -20 -12 -20 -19 0 -8 -9 -14 -20 -14 -17 0 -20 -7 -20 -40 0&#xA;-33 -3 -40 -20 -40 -19 0 -20 -7 -20 -150 0 -143 1 -150 20 -150 16 0 20 -7&#xA;20 -36 0 -27 5 -37 20 -41 11 -3 20 -12 20 -19 0 -8 7 -14 16 -14 9 0 18 -9&#xA;21 -20 4 -15 14 -20 39 -20 27 0 34 -4 34 -20 0 -18 7 -20 80 -20 73 0 80 2&#xA;80 20 0 16 7 20 35 20 28 0 35 4 35 20 0 13 7 20 20 20 11 0 20 7 20 15 0 8 7&#xA;15 15 15 11 0 15 11 15 40 0 33 3 40 20 40 19 0 20 7 20 150 0 143 -1 150 -20&#xA;150 -17 0 -20 7 -20 40 0 29 -4 40 -15 40 -8 0 -15 7 -15 15 0 8 -9 15 -20 15&#xA;-13 0 -20 7 -20 20 0 16 -7 20 -35 20 -28 0 -35 4 -35 20 0 18 -7 20 -80 20&#xA;-73 0 -80 -2 -80 -20z m150 -40 c0 -13 7 -20 20 -20 13 0 20 -7 20 -20 0 -11&#xA;7 -20 15 -20 14 0 20 -24 16 -57 -1 -7 7 -13 19 -13 19 0 20 -6 20 -150 0&#xA;-143 -1 -150 -20 -150 -16 0 -19 -6 -16 -31 3 -24 -1 -33 -15 -36 -11 -3 -19&#xA;-14 -19 -24 0 -12 -7 -19 -20 -19 -13 0 -20 -7 -20 -20 0 -18 -7 -20 -70 -20&#xA;-63 0 -70 2 -70 20 0 13 -7 20 -20 20 -13 0 -20 7 -20 20 0 13 -7 20 -20 20&#xA;-16 0 -20 7 -20 35 0 28 -4 35 -20 35 -19 0 -20 7 -20 150 0 143 1 150 20 150&#xA;16 0 20 7 20 35 0 28 4 35 20 35 13 0 20 7 20 20 0 13 7 20 20 20 13 0 20 7&#xA;20 20 0 18 7 20 70 20 63 0 70 -2 70 -20z"></path>
<path d="M1850 2100 c0 -17 6 -20 40 -20 l40 0 0 -300 0 -300 -40 0 c-33 0&#xA;-40 -3 -40 -20 0 -19 7 -20 100 -20 93 0 100 1 100 20 0 17 -7 20 -40 20 l-40&#xA;0 0 280 c0 242 2 280 15 280 12 0 15 -13 15 -55 0 -48 2 -55 20 -55 18 0 20&#xA;-7 20 -55 0 -48 2 -55 20 -55 18 0 20 -7 20 -60 0 -53 2 -60 20 -60 18 0 20&#xA;-7 20 -55 0 -42 3 -55 15 -55 10 0 15 -11 15 -35 0 -28 4 -35 20 -35 17 0 20&#xA;-7 20 -40 0 -33 3 -40 20 -40 17 0 20 7 20 40 0 33 3 40 20 40 18 0 20 7 20&#xA;55 0 48 2 55 20 55 18 0 20 7 20 55 0 42 3 55 15 55 10 0 15 10 15 34 0 25 5&#xA;35 20 39 17 4 20 14 20 61 0 49 2 56 20 56 16 0 20 7 20 35 0 24 5 35 15 35&#xA;13 0 15 -36 15 -260 l0 -260 -35 0 c-28 0 -35 -4 -35 -20 0 -19 7 -20 115 -20&#xA;108 0 115 1 115 20 0 17 -7 20 -40 20 l-40 0 0 300 0 300 40 0 c34 0 40 3 40&#xA;20 0 20 -5 21 -97 18 l-98 -3 -3 -37 c-2 -25 -8 -38 -18 -38 -10 0 -14 -14&#xA;-14 -55 0 -48 -2 -55 -20 -55 -18 0 -20 -7 -20 -55 0 -48 -2 -55 -20 -55 -16&#xA;0 -20 -7 -20 -35 0 -23 -5 -35 -14 -35 -20 0 -26 -24 -20 -71 5 -35 3 -41 -15&#xA;-46 -12 -3 -21 -13 -21 -25 0 -13 -6 -18 -17 -16 -14 2 -19 15 -21 61 -2 42&#xA;-7 57 -17 57 -11 0 -15 14 -15 55 0 48 -2 55 -20 55 -18 0 -20 7 -20 55 0 48&#xA;-2 55 -20 55 -18 0 -20 7 -20 55 0 41 -4 55 -14 55 -10 0 -16 13 -18 38 l-3&#xA;37 -97 3 c-93 3 -98 2 -98 -18z"></path>
<path d="M2990 2066 c0 -45 -3 -55 -19 -59 -16 -4 -20 -15 -23 -58 -2 -40 -7&#xA;-54 -18 -54 -11 0 -16 -14 -18 -57 -2 -43 -7 -58 -17 -58 -11 0 -15 -14 -15&#xA;-55 0 -48 -2 -55 -20 -55 -18 0 -20 -7 -20 -55 0 -48 -2 -55 -20 -55 -17 0&#xA;-20 -7 -20 -40 0 -39 -1 -40 -35 -40 -28 0 -35 -4 -35 -20 0 -19 7 -20 95 -20&#xA;88 0 95 1 95 20 0 16 -7 20 -35 20 -33 0 -35 2 -35 35 0 24 5 35 15 35 12 0&#xA;15 13 15 60 l0 60 130 0 130 0 0 -60 c0 -53 2 -60 20 -60 16 0 20 -7 20 -35 0&#xA;-34 -1 -35 -40 -35 -33 0 -40 -3 -40 -20 0 -19 7 -20 115 -20 108 0 115 1 115&#xA;20 0 16 -7 20 -35 20 -34 0 -35 2 -35 36 0 27 -5 37 -20 41 -17 5 -20 14 -20&#xA;59 0 47 -2 54 -20 54 -18 0 -20 7 -20 55 0 48 -2 55 -20 55 -17 0 -20 7 -20&#xA;40 0 29 -4 40 -15 40 -12 0 -15 13 -15 55 0 48 -2 55 -20 55 -16 0 -20 7 -20&#xA;35 0 28 -4 35 -20 35 -17 0 -20 7 -20 40 0 33 -3 40 -20 40 -18 0 -20 -7 -20&#xA;-54z m40 -141 c0 -28 4 -35 20 -35 18 0 20 -7 20 -55 0 -42 3 -55 15 -55 10 0&#xA;15 -11 15 -35 l0 -35 -90 0 -90 0 0 35 c0 28 4 35 20 35 18 0 20 7 20 55 0 42&#xA;3 55 15 55 10 0 15 11 15 35 0 28 4 35 20 35 16 0 20 -7 20 -35z"></path>
<path d="M3450 2100 c0 -13 7 -20 20 -20 20 0 20 -7 20 -300 0 -293 0 -300&#xA;-20 -300 -13 0 -20 -7 -20 -20 0 -19 7 -20 95 -20 88 0 95 1 95 20 0 16 -7 20&#xA;-35 20 l-35 0 0 115 c0 96 3 115 15 115 8 0 15 -9 15 -20 0 -13 7 -20 20 -20&#xA;13 0 20 -7 20 -20 0 -13 7 -20 20 -20 13 0 20 -7 20 -20 0 -11 7 -20 15 -20 8&#xA;0 15 -7 15 -16 0 -9 9 -18 20 -21 11 -3 20 -12 20 -19 0 -8 9 -14 20 -14 13 0&#xA;20 -7 20 -20 0 -17 -7 -20 -40 -20 -33 0 -40 -3 -40 -20 0 -19 7 -20 135 -20&#xA;128 0 135 1 135 20 0 16 -7 20 -36 20 -27 0 -37 5 -41 20 -3 11 -12 20 -19 20&#xA;-8 0 -14 9 -14 20 0 13 -7 20 -20 20 -12 0 -20 7 -20 16 0 9 -9 18 -20 21 -11&#xA;3 -20 11 -20 18 0 7 -9 15 -20 18 -11 3 -20 12 -20 21 0 9 -6 16 -14 16 -7 0&#xA;-16 9 -19 20 -3 11 -12 20 -21 20 -9 0 -16 7 -16 15 0 8 -9 15 -20 15 -13 0&#xA;-20 7 -20 20 0 13 -7 20 -20 20 -12 0 -20 7 -20 16 0 9 9 18 20 21 11 3 20 12&#xA;20 19 0 8 9 14 20 14 13 0 20 7 20 20 0 13 7 20 20 20 13 0 20 7 20 20 0 13 7&#xA;20 20 20 11 0 20 7 20 15 0 8 7 15 15 15 8 0 15 9 15 20 0 13 7 20 20 20 13 0&#xA;20 7 20 20 0 13 7 20 20 20 13 0 20 7 20 20 0 17 5 19 35 14 32 -5 35 -3 35&#xA;20 0 26 -1 26 -75 26 -68 0 -75 -2 -75 -20 0 -11 7 -20 15 -20 8 0 15 -7 15&#xA;-15 0 -9 -7 -18 -15 -21 -8 -4 -15 -12 -15 -20 0 -8 -9 -14 -20 -14 -13 0 -20&#xA;-7 -20 -20 0 -13 -7 -20 -20 -20 -13 0 -20 -7 -20 -20 0 -11 -6 -20 -14 -20&#xA;-7 0 -16 -9 -19 -20 -3 -11 -12 -20 -21 -20 -9 0 -16 -6 -16 -14 0 -7 -9 -16&#xA;-20 -19 -11 -3 -20 -12 -20 -21 0 -9 -7 -16 -15 -16 -13 0 -15 21 -15 130 l0&#xA;130 35 0 c28 0 35 4 35 20 0 19 -7 20 -95 20 -88 0 -95 -1 -95 -20z"></path>
<path d="M4100 2100 c0 -17 7 -20 40 -20 l40 0 0 -300 0 -300 -40 0 c-33 0&#xA;-40 -3 -40 -20 0 -19 7 -20 210 -20 203 0 210 1 210 20 0 11 7 20 15 20 15 0&#xA;17 6 19 75 1 34 -2 40 -21 43 -17 3 -23 -2 -23 -16 0 -11 -9 -22 -20 -25 -11&#xA;-3 -20 -12 -20 -21 0 -9 -7 -16 -15 -16 -8 0 -15 -9 -15 -20 0 -20 -5 -21 -92&#xA;-18 l-93 3 -3 148 -3 147 76 0 c68 0 75 -2 75 -20 0 -13 7 -20 20 -20 13 0 20&#xA;-7 20 -20 0 -13 7 -20 20 -20 20 0 21 5 18 97 -3 94 -21 138 -35 84 -3 -12&#xA;-13 -21 -24 -21 -12 0 -19 -7 -19 -20 0 -18 -7 -20 -75 -20 l-76 0 3 128 3&#xA;127 93 3 c87 3 92 2 92 -18 0 -11 7 -20 15 -20 8 0 15 -7 15 -16 0 -9 9 -18&#xA;19 -21 11 -3 21 -14 24 -25 4 -12 12 -18 24 -16 29 5 32 107 4 115 -12 3 -21&#xA;14 -21 24 0 18 -11 19 -210 19 -203 0 -210 -1 -210 -20z"></path>
<path d="M2760 1005 c0 -73 1 -75 25 -75 16 0 25 6 25 15 0 8 7 15 15 15 8 0&#xA;15 9 15 20 0 18 7 20 75 20 l75 0 0 -295 0 -295 -40 0 c-33 0 -40 -3 -40 -20&#xA;0 -19 7 -20 115 -20 108 0 115 1 115 20 0 16 -7 20 -35 20 l-35 0 0 295 0 295&#xA;70 0 c63 0 70 -2 70 -20 0 -13 7 -20 20 -20 11 0 20 -7 20 -15 0 -8 9 -15 20&#xA;-15 18 0 20 7 20 75 0 68 -2 75 -20 75 -13 0 -20 -7 -20 -20 0 -19 -7 -20&#xA;-220 -20 -213 0 -220 1 -220 20 0 15 -7 20 -25 20 -24 0 -25 -2 -25 -75z"></path>
<path d="M320 1025 c0 -8 -9 -15 -20 -15 -13 0 -20 -7 -20 -20 0 -13 -7 -20&#xA;-20 -20 -13 0 -20 -7 -20 -20 0 -13 -7 -20 -20 -20 -30 0 -30 -109 0 -117 15&#xA;-4 20 -14 20 -39 0 -33 1 -34 40 -34 33 0 40 -3 40 -20 0 -16 7 -20 35 -20 24&#xA;0 35 -5 35 -15 0 -11 11 -15 36 -15 27 0 37 -5 41 -20 3 -11 11 -20 18 -20 7&#xA;0 15 -9 18 -20 3 -11 12 -20 21 -20 27 0 23 -136 -4 -143 -11 -3 -20 -12 -20&#xA;-21 0 -13 -14 -16 -90 -16 -83 0 -90 1 -90 20 0 13 -7 20 -20 20 -11 0 -20 7&#xA;-20 15 0 8 -7 15 -15 15 -8 0 -15 9 -15 20 0 15 -7 20 -25 20 -35 0 -39 -108&#xA;-5 -117 11 -3 20 -12 20 -19 0 -11 27 -14 135 -14 108 0 135 3 135 14 0 7 9&#xA;16 20 19 11 3 20 12 20 21 0 9 7 16 15 16 8 0 15 9 15 20 0 13 7 20 20 20 18&#xA;0 20 7 20 75 0 68 -2 75 -20 75 -13 0 -20 7 -20 19 0 11 -9 21 -21 24 -12 3&#xA;-18 10 -14 17 4 7 -2 14 -14 17 -12 3 -21 12 -21 19 0 10 -13 14 -40 14 -33 0&#xA;-40 3 -40 20 0 16 -7 20 -35 20 -28 0 -35 4 -35 20 0 17 -7 20 -40 20 l-40 0&#xA;0 70 c0 63 2 70 20 70 13 0 20 7 20 20 0 18 7 20 75 20 68 0 75 -2 75 -20 0&#xA;-11 7 -20 15 -20 8 0 15 -7 15 -15 0 -8 9 -15 20 -15 13 0 20 -7 20 -20 0 -13&#xA;7 -20 20 -20 18 0 20 7 20 60 0 47 -3 60 -15 60 -8 0 -15 7 -15 15 0 12 -19&#xA;15 -115 15 -96 0 -115 -3 -115 -15z"></path>
<path d="M930 1025 c0 -11 -11 -15 -36 -15 -27 0 -37 -5 -41 -20 -3 -11 -12&#xA;-20 -19 -20 -8 0 -14 -9 -14 -20 0 -13 -7 -20 -20 -20 -16 0 -20 -7 -20 -35 0&#xA;-28 -4 -35 -20 -35 -19 0 -20 -7 -20 -155 0 -148 1 -155 20 -155 16 0 20 -7&#xA;20 -35 0 -28 4 -35 20 -35 13 0 20 -7 20 -20 0 -11 6 -20 14 -20 7 0 16 -9 19&#xA;-20 4 -15 14 -20 41 -20 25 0 36 -4 36 -15 0 -12 15 -15 75 -15 60 0 75 3 75&#xA;15 0 11 11 15 40 15 33 0 40 3 40 20 0 11 7 20 15 20 8 0 15 9 15 20 0 13 7&#xA;20 20 20 16 0 20 7 20 35 0 28 4 35 20 35 19 0 20 7 20 151 0 142 -1 151 -20&#xA;156 -15 4 -20 14 -20 39 0 27 -4 34 -20 34 -13 0 -20 7 -20 20 0 11 -6 20 -14&#xA;20 -7 0 -16 9 -19 20 -4 15 -14 20 -41 20 -25 0 -36 4 -36 15 0 12 -15 15 -75&#xA;15 -60 0 -75 -3 -75 -15z m150 -45 c0 -11 7 -20 15 -20 8 0 15 -7 15 -15 0 -8&#xA;9 -15 20 -15 17 0 20 -7 20 -40 0 -33 3 -40 20 -40 19 0 20 -7 20 -145 0 -138&#xA;-1 -145 -20 -145 -17 0 -20 -7 -20 -40 0 -33 -3 -40 -20 -40 -11 0 -20 -7 -20&#xA;-15 0 -8 -7 -15 -15 -15 -8 0 -15 -9 -15 -20 0 -18 -7 -20 -75 -20 -68 0 -75&#xA;2 -75 20 0 11 -7 20 -15 20 -8 0 -15 7 -15 15 0 8 -9 15 -20 15 -17 0 -20 7&#xA;-20 40 0 33 -3 40 -20 40 -19 0 -20 7 -20 145 0 138 1 145 20 145 17 0 20 7&#xA;20 40 0 33 3 40 20 40 11 0 20 7 20 15 0 8 7 15 15 15 8 0 15 9 15 20 0 18 7&#xA;20 75 20 68 0 75 -2 75 -20z"></path>
<path d="M1350 1020 c0 -17 7 -20 40 -20 l40 0 0 -295 0 -295 -40 0 c-33 0&#xA;-40 -3 -40 -20 0 -19 7 -20 100 -20 93 0 100 1 100 20 0 17 -7 20 -40 20 l-40&#xA;0 0 275 c0 238 2 275 15 275 11 0 15 -12 15 -51 0 -42 3 -52 20 -56 17 -5 20&#xA;-14 20 -59 0 -47 2 -54 20 -54 18 0 20 -7 20 -55 0 -48 2 -55 20 -55 18 0 20&#xA;-7 20 -55 0 -42 3 -55 15 -55 11 0 15 -11 15 -40 0 -33 3 -40 20 -40 16 0 20&#xA;-7 20 -35 0 -28 4 -35 20 -35 16 0 20 7 20 35 0 28 4 35 20 35 18 0 20 7 20&#xA;54 0 45 3 54 20 59 17 4 20 14 20 61 0 43 3 56 15 56 10 0 15 11 15 35 0 28 4&#xA;35 20 35 18 0 20 7 20 55 0 48 2 55 20 55 17 0 20 7 20 40 0 29 4 40 15 40 13&#xA;0 15 -36 15 -260 l0 -260 -35 0 c-28 0 -35 -4 -35 -20 0 -19 7 -20 116 -20&#xA;105 0 115 2 112 18 -2 12 -14 18 -41 20 l-37 3 0 294 0 294 37 3 c27 2 39 8&#xA;41 21 3 15 -7 17 -97 17 l-101 0 0 -35 c0 -24 -5 -35 -15 -35 -12 0 -15 -13&#xA;-15 -55 0 -48 -2 -55 -20 -55 -18 0 -20 -7 -20 -60 0 -53 -2 -60 -20 -60 -16&#xA;0 -20 -7 -20 -34 0 -26 -5 -35 -21 -39 -15 -4 -20 -13 -19 -34 4 -54 0 -73&#xA;-15 -73 -8 0 -15 -9 -15 -20 0 -13 -7 -20 -20 -20 -18 0 -20 7 -20 55 0 42 -3&#xA;55 -15 55 -12 0 -15 13 -15 55 0 48 -2 55 -20 55 -18 0 -20 7 -20 56 0 47 -3&#xA;57 -20 61 -17 5 -20 14 -20 59 0 48 -2 54 -21 54 -19 0 -21 4 -16 35 l6 35&#xA;-100 0 c-92 0 -99 -1 -99 -20z"></path>
<path d="M2230 1020 c0 -16 7 -20 35 -20 l35 0 0 -295 0 -295 -35 0 c-28 0&#xA;-35 -4 -35 -20 0 -19 7 -20 205 -20 176 0 205 2 205 15 0 8 9 15 20 15 18 0&#xA;20 7 20 60 0 53 -2 60 -20 60 -13 0 -20 -7 -20 -20 0 -13 -7 -20 -20 -20 -11&#xA;0 -20 -7 -20 -15 0 -8 -7 -15 -16 -15 -9 0 -18 -9 -21 -20 -5 -18 -14 -20 -94&#xA;-20 l-89 0 0 145 0 145 75 0 c68 0 75 -2 75 -20 0 -11 7 -20 15 -20 8 0 15 -7&#xA;15 -15 0 -9 9 -15 25 -15 25 0 25 0 25 95 0 95 0 95 -25 95 -18 0 -25 -5 -25&#xA;-20 0 -11 -6 -20 -14 -20 -7 0 -16 -9 -19 -20 -5 -18 -14 -20 -76 -20 l-71 0&#xA;0 130 0 130 90 0 c76 0 90 -3 90 -16 0 -9 9 -18 20 -21 11 -3 20 -12 20 -19 0&#xA;-8 9 -14 20 -14 13 0 20 -7 20 -20 0 -13 7 -20 20 -20 18 0 20 7 20 60 0 53&#xA;-2 60 -20 60 -11 0 -20 7 -20 15 0 13 -29 15 -205 15 -198 0 -205 -1 -205 -20z"></path>
<path d="M3410 1020 c0 -17 7 -20 40 -20 l40 0 0 -295 0 -295 -41 0 c-35 0&#xA;-40 -3 -37 -20 2 -12 6 -21 11 -20 4 0 54 0 112 0 98 0 105 1 105 20 0 16 -7&#xA;20 -35 20 l-35 0 0 145 0 145 130 0 131 0 -3 -142 -3 -143 -37 -3 c-30 -3 -38&#xA;-7 -38 -23 0 -18 8 -19 115 -19 108 0 115 1 115 20 0 17 -7 20 -40 20 l-40 0&#xA;0 295 0 295 40 0 c33 0 40 3 40 20 0 19 -7 20 -115 20 -108 0 -115 -1 -115&#xA;-20 0 -17 7 -20 40 -20 l41 0 -3 -127 -3 -128 -127 -3 -128 -3 0 131 0 130 35&#xA;0 c28 0 35 4 35 20 0 19 -7 20 -115 20 -108 0 -115 -1 -115 -20z"></path>
<path d="M4100 1020 c0 -17 7 -20 40 -20 l40 0 0 -295 0 -295 -40 0 c-33 0&#xA;-40 -3 -40 -20 0 -19 7 -20 115 -20 107 0 115 1 115 19 0 16 -8 20 -37 23&#xA;l-38 3 -2 270 c-3 315 -3 315 43 315 27 0 34 4 34 20 0 19 -7 20 -115 20 -108&#xA;0 -115 -1 -115 -20z"></path>
<path d="M4450 1020 c0 -17 7 -20 40 -20 l40 0 0 -295 0 -295 -40 0 c-33 0&#xA;-40 -3 -40 -20 0 -19 7 -20 95 -20 88 0 95 1 95 20 0 16 -7 20 -35 20 l-35 0&#xA;0 260 c0 224 2 260 15 260 8 0 15 -9 15 -20 0 -13 7 -20 20 -20 17 0 20 -7 20&#xA;-40 0 -33 3 -40 20 -40 11 0 20 -7 20 -15 0 -8 7 -15 15 -15 11 0 15 -11 15&#xA;-36 0 -27 5 -37 20 -41 11 -3 20 -12 20 -19 0 -8 9 -14 20 -14 17 0 20 -7 20&#xA;-40 0 -29 4 -40 15 -40 8 0 15 -7 15 -16 0 -9 9 -18 20 -21 15 -4 20 -14 20&#xA;-39 0 -27 4 -34 20 -34 17 0 20 -7 20 -40 0 -33 3 -40 20 -40 11 0 20 -7 20&#xA;-15 0 -8 9 -15 20 -15 20 0 20 7 20 315 l0 315 35 0 c28 0 35 4 35 20 0 19 -7&#xA;20 -95 20 -88 0 -95 -1 -95 -20 0 -17 7 -20 40 -20 l40 0 0 -220 c0 -213 -1&#xA;-220 -20 -220 -11 0 -20 7 -20 15 0 8 -7 15 -15 15 -11 0 -15 11 -15 40 0 33&#xA;-3 40 -20 40 -13 0 -20 7 -20 20 0 13 -7 20 -20 20 -16 0 -20 7 -20 34 0 26&#xA;-5 35 -21 39 -12 3 -18 10 -14 17 4 7 -2 14 -14 17 -16 4 -21 13 -21 39 0 27&#xA;-4 34 -20 34 -13 0 -20 7 -20 20 0 13 -7 20 -20 20 -17 0 -20 7 -20 40 0 29&#xA;-4 40 -15 40 -8 0 -15 7 -15 15 0 12 -16 15 -80 15 -73 0 -80 -2 -80 -20z"></path>
<path d="M5320 1025 c0 -10 -11 -15 -35 -15 -28 0 -35 -4 -35 -20 0 -13 -7&#xA;-20 -20 -20 -13 0 -20 -7 -20 -20 0 -11 -7 -20 -15 -20 -10 0 -15 -11 -15 -35&#xA;0 -28 -4 -35 -20 -35 -19 0 -20 -7 -20 -155 0 -148 1 -155 20 -155 11 0 20 -7&#xA;20 -15 0 -8 7 -15 15 -15 11 0 15 -11 15 -40 0 -33 3 -40 20 -40 13 0 20 -7&#xA;20 -20 0 -16 7 -20 35 -20 24 0 35 -5 35 -15 0 -12 20 -15 120 -15 102 0 119&#xA;2 114 15 -4 10 0 15 15 15 14 0 21 6 21 20 0 13 7 20 20 20 19 0 20 7 20 109&#xA;0 100 2 109 20 114 12 3 20 14 20 26 0 20 -5 21 -101 21 -98 0 -100 0 -97 -22&#xA;3 -20 8 -23 41 -21 l37 2 0 -108 c0 -100 -2 -109 -20 -114 -11 -3 -20 -12 -20&#xA;-21 0 -13 -14 -16 -90 -16 -83 0 -90 1 -90 20 0 13 -7 20 -20 20 -16 0 -20 7&#xA;-20 35 0 24 -5 35 -15 35 -8 0 -15 7 -15 16 0 9 -9 18 -20 21 -19 5 -20 14&#xA;-20 148 0 134 1 143 20 148 15 4 20 14 20 41 0 25 4 36 15 36 8 0 15 7 15 15&#xA;0 8 9 15 20 15 13 0 20 7 20 20 0 19 7 20 90 20 83 0 90 -1 90 -20 0 -13 7&#xA;-20 20 -20 11 0 20 -7 20 -15 0 -8 7 -15 16 -15 9 0 18 -9 21 -20 3 -11 14&#xA;-20 24 -20 17 0 19 8 19 60 0 53 -2 60 -20 60 -11 0 -20 7 -20 15 0 13 -22 15&#xA;-135 15 -113 0 -135 -2 -135 -15z"></path>
</g>
</svg>